<svg width="49" height="48" viewBox="0 0 49 48" fill="none" xmlns="http://www.w3.org/2000/svg">
<path d="M27.9047 36.973H29.202V40.8649H27.9047V36.973Z" fill="white"/>
<path d="M43.4722 37.6216H4.5533C3.69314 37.6216 2.86821 37.2799 2.25998 36.6717C1.65176 36.0635 1.31006 35.2385 1.31006 34.3784V7.13512C1.31006 6.27496 1.65176 5.45003 2.25998 4.8418C2.86821 4.23357 3.69314 3.89188 4.5533 3.89188H43.4722C44.3324 3.89188 45.1573 4.23357 45.7655 4.8418C46.3738 5.45003 46.7155 6.27496 46.7155 7.13512V34.3784C46.7155 35.2385 46.3738 36.0635 45.7655 36.6717C45.1573 37.2799 44.3324 37.6216 43.4722 37.6216ZM4.5533 5.18917C4.0372 5.18917 3.54225 5.39419 3.17731 5.75913C2.81237 6.12406 2.60736 6.61902 2.60736 7.13512V34.3784C2.60736 34.8945 2.81237 35.3894 3.17731 35.7544C3.54225 36.1193 4.0372 36.3243 4.5533 36.3243H43.4722C43.9883 36.3243 44.4833 36.1193 44.8482 35.7544C45.2131 35.3894 45.4182 34.8945 45.4182 34.3784V7.13512C45.4182 6.61902 45.2131 6.12406 44.8482 5.75913C44.4833 5.39419 43.9883 5.18917 43.4722 5.18917H4.5533Z" fill="white"/>
<path d="M32.4453 44.1081H15.5804C15.4084 44.1081 15.2434 44.0397 15.1217 43.9181C15.0001 43.7964 14.9318 43.6315 14.9318 43.4594C14.9318 40.2162 18.3501 40.2162 19.4723 40.2162H28.5534C29.6755 40.2162 33.0939 40.2162 33.0939 43.4594C33.0939 43.6315 33.0256 43.7964 32.9039 43.9181C32.7823 44.0397 32.6173 44.1081 32.4453 44.1081ZM16.3069 42.8108H31.7188C31.4918 42.0129 30.7069 41.5135 28.5534 41.5135H19.4723C17.3188 41.5135 16.5339 42.0129 16.3069 42.8108Z" fill="white"/>
<path d="M18.8237 36.973H20.121V40.8649H18.8237V36.973Z" fill="white"/>
<path d="M1.95874 31.1352H46.0668V32.4325H1.95874V31.1352Z" fill="white"/>
<path d="M22.0668 33.7298H25.9587V35.0271H22.0668V33.7298Z" fill="white"/>
<path d="M27.2563 22.7027C27.1498 22.7022 27.0451 22.6755 26.9514 22.6249L18.519 18.0844C18.4154 18.0292 18.3287 17.947 18.2682 17.8465C18.2076 17.746 18.1755 17.6309 18.1752 17.5136V12.3244C18.1755 12.207 18.2076 12.092 18.2682 11.9914C18.3287 11.8909 18.4154 11.8087 18.519 11.7536L26.9514 7.21301C27.0501 7.16045 27.1607 7.1343 27.2725 7.13711C27.3843 7.13991 27.4935 7.17157 27.5894 7.22901C27.6854 7.28645 27.7648 7.36772 27.8201 7.46493C27.8754 7.56214 27.9046 7.67199 27.9049 7.78382V22.0541C27.9049 22.1667 27.8756 22.2773 27.8198 22.3751C27.7641 22.4729 27.6839 22.5545 27.5871 22.6119C27.4869 22.6713 27.3727 22.7027 27.2563 22.7027ZM19.4725 17.1244L26.6076 20.9709V8.86707L19.4725 12.7136V17.1244Z" fill="#D79D4B"/>
<path d="M18.8236 18.1621H14.283C13.4229 18.1621 12.5979 17.8205 11.9897 17.2122C11.3815 16.604 11.0398 15.7791 11.0398 14.9189C11.0398 14.0587 11.3815 13.2338 11.9897 12.6256C12.5979 12.0174 13.4229 11.6757 14.283 11.6757H18.8236V12.973H14.283C13.7669 12.973 13.272 13.178 12.907 13.5429C12.5421 13.9078 12.3371 14.4028 12.3371 14.9189C12.3371 15.435 12.5421 15.93 12.907 16.2949C13.272 16.6598 13.7669 16.8649 14.283 16.8649H18.8236V18.1621Z" fill="#D79D4B"/>
<path d="M18.1749 29.1892H14.283C14.111 29.1892 13.946 29.1208 13.8244 28.9992C13.7027 28.8776 13.6344 28.7126 13.6344 28.5405V17.5135C13.6344 17.3415 13.7027 17.1765 13.8244 17.0549C13.946 16.9332 14.111 16.8649 14.283 16.8649H18.1749C18.347 16.8649 18.512 16.9332 18.6336 17.0549C18.7553 17.1765 18.8236 17.3415 18.8236 17.5135V28.5405C18.8236 28.7126 18.7553 28.8776 18.6336 28.9992C18.512 29.1208 18.347 29.1892 18.1749 29.1892ZM14.9317 27.8919H17.5263V18.1622H14.9317V27.8919Z" fill="#D79D4B"/>
<path d="M28.5534 18.1621H27.2561C27.0841 18.1621 26.9191 18.0938 26.7975 17.9722C26.6758 17.8505 26.6075 17.6855 26.6075 17.5135V12.3243C26.6075 12.1523 26.6758 11.9873 26.7975 11.8656C26.9191 11.744 27.0841 11.6757 27.2561 11.6757H28.5534C29.4136 11.6757 30.2385 12.0174 30.8468 12.6256C31.455 13.2338 31.7967 14.0587 31.7967 14.9189C31.7967 15.7791 31.455 16.604 30.8468 17.2122C30.2385 17.8205 29.4136 18.1621 28.5534 18.1621ZM27.9048 16.8649H28.5534C29.0695 16.8649 29.5645 16.6598 29.9294 16.2949C30.2944 15.93 30.4994 15.435 30.4994 14.9189C30.4994 14.4028 30.2944 13.9078 29.9294 13.5429C29.5645 13.178 29.0695 12.973 28.5534 12.973H27.9048V16.8649Z" fill="#D79D4B"/>
<path d="M32.6304 11.2183L35.2264 8.62222L36.1437 9.53955L33.5477 12.1356L32.6304 11.2183Z" fill="#D79D4B"/>
<path d="M32.6289 18.6196L33.5462 17.7022L36.1423 20.2983L35.225 21.2156L32.6289 18.6196Z" fill="#D79D4B"/>
<path d="M33.0939 14.2702H36.3371V15.5675H33.0939V14.2702Z" fill="#D79D4B"/>
</svg>
