<svg width="22" height="16" viewBox="0 0 22 16" fill="none" xmlns="http://www.w3.org/2000/svg">
<path d="M21.8657 7.67579L14.9907 0.800792C14.8117 0.621741 14.5216 0.621741 14.3426 0.800792C14.1636 0.979843 14.1636 1.26988 14.3426 1.44889L20.4353 7.54151H0.458348C0.205004 7.54151 0 7.74652 0 7.99986C0 8.25321 0.205004 8.45821 0.458348 8.45821H20.4353L14.3426 14.5508C14.1636 14.7298 14.1636 15.0199 14.3426 15.1989C14.4321 15.2884 14.5494 15.3332 14.6667 15.3332C14.784 15.3332 14.9012 15.2884 14.9908 15.1989L21.8658 8.32389C22.0448 8.14488 22.0448 7.85484 21.8657 7.67579Z" fill="black"/>
</svg>
