<svg width="24" height="24" viewBox="0 0 24 24" fill="none" xmlns="http://www.w3.org/2000/svg">
<path d="M11.9131 12.9319C11.9379 12.9319 11.9628 12.9319 11.9926 12.9319C12.0026 12.9319 12.0125 12.9319 12.0224 12.9319C12.0373 12.9319 12.0572 12.9319 12.0721 12.9319C13.5283 12.907 14.7062 12.3951 15.576 11.416C17.4894 9.25906 17.1713 5.5614 17.1365 5.20853C17.0123 2.55954 15.7599 1.29219 14.7261 0.700766C13.9558 0.258439 13.0562 0.0198799 12.0523 0H12.0175C12.0125 0 12.0026 0 11.9976 0H11.9678C11.4161 0 10.3326 0.0894595 9.29392 0.680886C8.25022 1.27231 6.97791 2.53966 6.85366 5.20853C6.81887 5.5614 6.50079 9.25906 8.41423 11.416C9.27901 12.3951 10.4569 12.907 11.9131 12.9319ZM8.18064 5.33278C8.18064 5.31787 8.18561 5.30296 8.18561 5.29302C8.34962 1.72955 10.8793 1.34686 11.9628 1.34686H11.9827C11.9926 1.34686 12.0075 1.34686 12.0224 1.34686C13.3643 1.37668 15.6455 1.92338 15.7996 5.29302C15.7996 5.30793 15.7996 5.32284 15.8046 5.33278C15.8096 5.36757 16.1575 8.74715 14.577 10.5264C13.9508 11.2321 13.1158 11.58 12.0175 11.59C12.0075 11.59 12.0026 11.59 11.9926 11.59C11.9827 11.59 11.9777 11.59 11.9678 11.59C10.8744 11.58 10.0344 11.2321 9.4132 10.5264C7.83772 8.75709 8.17567 5.3626 8.18064 5.33278Z" fill="#83838E"/>
<path d="M22.206 19.0647C22.206 19.0598 22.206 19.0548 22.206 19.0498C22.206 19.0101 22.201 18.9703 22.201 18.9256C22.1712 17.9415 22.1066 15.6404 19.9496 14.9049C19.9347 14.8999 19.9148 14.8949 19.8999 14.89C17.6585 14.3184 15.7947 13.0262 15.7749 13.0113C15.4717 12.7976 15.0542 12.8721 14.8405 13.1753C14.6268 13.4785 14.7013 13.896 15.0045 14.1097C15.089 14.1693 17.0671 15.546 19.5421 16.1821C20.7001 16.5947 20.8293 17.8322 20.8641 18.9653C20.8641 19.0101 20.8641 19.0498 20.8691 19.0896C20.8741 19.5369 20.8442 20.2277 20.7647 20.6253C19.9596 21.0825 16.8036 22.663 12.0026 22.663C7.22153 22.663 4.04572 21.0776 3.23561 20.6203C3.15609 20.2227 3.1213 19.5319 3.13124 19.0846C3.13124 19.0449 3.13621 19.0051 3.13621 18.9604C3.171 17.8272 3.30022 16.5897 4.45823 16.1772C6.93327 15.541 8.91132 14.1594 8.99581 14.1047C9.29898 13.891 9.37353 13.4735 9.15982 13.1703C8.94611 12.8672 8.52864 12.7926 8.22547 13.0063C8.20559 13.0212 6.35179 14.3134 4.10039 14.885C4.08051 14.89 4.0656 14.8949 4.05069 14.8999C1.89372 15.6404 1.82911 17.9415 1.79929 18.9206C1.79929 18.9653 1.79929 19.0051 1.79432 19.0449C1.79432 19.0498 1.79432 19.0548 1.79432 19.0598C1.78935 19.3182 1.78438 20.6452 2.04779 21.3112C2.09749 21.4404 2.18695 21.5497 2.30623 21.6243C2.45533 21.7237 6.02874 23.9999 12.0076 23.9999C17.9865 23.9999 21.5599 21.7187 21.709 21.6243C21.8233 21.5497 21.9177 21.4404 21.9674 21.3112C22.2159 20.6502 22.211 19.3232 22.206 19.0647Z" fill="#83838E"/>
</svg>
