<svg width="24" height="18" viewBox="0 0 24 18" fill="#000" xmlns="http://www.w3.org/2000/svg">
<path d="M22.9006 10.152H1.45059C0.865586 10.152 0.475586 9.71869 0.475586 9.06869C0.475586 8.41869 0.865586 7.98535 1.45059 7.98535H22.9006C23.4856 7.98535 23.8756 8.41869 23.8756 9.06869C23.8756 9.71869 23.4856 10.152 22.9006 10.152Z" />
<path d="M22.9006 2.56852H1.45059C0.865586 2.56852 0.475586 2.13519 0.475586 1.48519C0.475586 0.835189 0.865586 0.401855 1.45059 0.401855H22.9006C23.4856 0.401855 23.8756 0.835189 23.8756 1.48519C23.8756 2.13519 23.4856 2.56852 22.9006 2.56852Z" />
<path d="M22.9006 17.735H1.45059C0.865586 17.735 0.475586 17.3017 0.475586 16.6517C0.475586 16.0017 0.865586 15.5684 1.45059 15.5684H22.9006C23.4856 15.5684 23.8756 16.0017 23.8756 16.6517C23.8756 17.3017 23.4856 17.735 22.9006 17.735Z" />
</svg>
