<svg width="23" height="23" viewBox="0 0 23 23" fill="none" xmlns="http://www.w3.org/2000/svg">
<path d="M22.3304 4.08807C22.329 4.08807 22.3276 4.08789 22.3262 4.08789H16.2168V3.41406C16.2168 2.29944 15.3099 1.39258 14.1953 1.39258H8.80469C7.69006 1.39258 6.7832 2.29944 6.7832 3.41406V4.08789H0.673828C0.29866 4.08789 0 4.39532 0 4.76172V19.5859C0 20.7006 0.90686 21.6074 2.02148 21.6074H20.9785C22.0931 21.6074 23 20.7006 23 19.5859V4.77593C23 4.77505 23 4.77418 23 4.7733C22.9742 4.33075 22.702 4.09052 22.3304 4.08807ZM8.13086 3.41406C8.13086 3.04258 8.4332 2.74023 8.80469 2.74023H14.1953C14.5668 2.74023 14.8691 3.04258 14.8691 3.41406V4.08789H8.13086V3.41406ZM21.3912 5.43555L19.2987 11.713C19.2069 11.9887 18.95 12.1738 18.6596 12.1738H14.8691V11.5C14.8691 11.1278 14.5675 10.8262 14.1953 10.8262H8.80469C8.4325 10.8262 8.13086 11.1278 8.13086 11.5V12.1738H4.3404C4.04999 12.1738 3.79309 11.9887 3.70132 11.713L1.60876 5.43555H21.3912ZM13.5215 12.1738V13.5215H9.47852V12.1738H13.5215ZM21.6523 19.5859C21.6523 19.9574 21.35 20.2598 20.9785 20.2598H2.02148C1.65 20.2598 1.34766 19.9574 1.34766 19.5859V8.91401L2.4228 12.1393C2.6983 12.9661 3.46899 13.5215 4.3404 13.5215H8.13086V14.1953C8.13086 14.5675 8.4325 14.8691 8.80469 14.8691H14.1953C14.5675 14.8691 14.8691 14.5675 14.8691 14.1953V13.5215H18.6596C19.531 13.5215 20.3017 12.9661 20.5772 12.1393L21.6523 8.91401V19.5859Z" fill="#83838E"/>
</svg>
