<svg width="70" height="70" viewBox="0 0 70 70" fill="none" xmlns="http://www.w3.org/2000/svg">
<path d="M48.7601 17.1342C44.7936 13.3941 39.3295 11.4354 33.7683 11.7632C28.838 12.0473 24.1909 14.16 20.7355 17.6882C17.2699 21.2242 15.3519 25.8052 15.3351 30.5875C15.3138 36.5074 18.0749 41.9783 22.9104 45.5691C24.6965 46.87 25.9032 48.8177 26.2729 50.9962H25.9073C25.4542 50.9962 25.0194 51.3331 25.0194 51.786V54.7141C25.0194 55.1672 25.4542 55.5079 25.9073 55.5079H26.3866V57.1485H25.9073C25.4542 57.1485 25.0194 57.4802 25.0194 57.9332V60.8613C25.0194 61.3143 25.4542 61.6602 25.9073 61.6602H26.3866V63.752C26.3883 63.858 26.4113 63.9626 26.4541 64.0595C26.4969 64.1565 26.5588 64.2439 26.6359 64.3165C26.7131 64.3892 26.8041 64.4456 26.9034 64.4825C27.0028 64.5194 27.1085 64.536 27.2144 64.5313H27.7955L28.9882 67.8991C29.0428 68.0642 29.1454 68.2092 29.2829 68.3156C29.4204 68.4219 29.5865 68.4848 29.76 68.4962H40.2398C40.4132 68.4848 40.5794 68.4219 40.7169 68.3156C40.8544 68.2092 40.957 68.0642 41.0116 67.8991L42.205 64.5313H42.7857C42.8916 64.5359 42.9973 64.5193 43.0966 64.4824C43.1959 64.4455 43.2868 64.389 43.364 64.3164C43.4411 64.2437 43.5029 64.1564 43.5457 64.0594C43.5885 63.9625 43.6114 63.858 43.6132 63.752V61.6602H44.0925C44.5456 61.6602 44.9804 61.3143 44.9804 60.8613V57.9332C44.9804 57.4802 44.5456 57.1485 44.0925 57.1485H43.6132V55.5079H44.0925C44.5456 55.5079 44.9804 55.1672 44.9804 54.7141V51.786C44.9804 51.3331 44.5456 50.9962 44.0925 50.9962H43.7299C44.0955 48.8381 45.2864 46.9069 47.0507 45.6114C51.8897 41.9732 54.665 36.5196 54.665 30.662C54.665 25.5341 52.5682 20.7249 48.7601 17.1342ZM39.6632 66.8556H30.3365L29.5392 64.5313H40.4606L39.6632 66.8556ZM41.9725 62.8907H28.0272V61.6602H41.9725V62.8907ZM43.3397 60.0196H26.66V58.7891H43.3397V60.0196ZM28.0272 57.1485V55.5079H41.9725V57.1485H28.0272ZM43.3397 53.8673H26.66V52.6368H43.3397V53.8673ZM46.0648 44.3C43.9096 45.9243 42.4761 48.3279 42.0714 50.9962H35.8202V35.1848C36.8643 35.0082 37.4942 34.5109 38.0312 34.0951C38.6177 33.6411 39.1015 33.2825 40.0585 33.2825V31.6419C38.5546 31.6419 37.6922 32.2828 37.0269 32.798C36.4404 33.252 35.9839 33.6106 34.9928 33.6106C34.0017 33.6106 33.5556 33.252 32.9693 32.798C32.3042 32.2828 31.4453 31.6419 29.9414 31.6419V33.2825C30.8985 33.2825 31.3819 33.6411 31.9683 34.0951C32.5053 34.5109 33.1353 35.0084 34.1797 35.1849V50.9962H27.9315C27.7456 49.658 27.2917 48.371 26.5971 47.2122C25.9024 46.0534 24.9812 45.0465 23.8886 44.2518C19.4762 40.9751 16.957 35.994 16.9758 30.6009C16.9914 26.2484 18.7428 22.0696 21.9076 18.8403C25.0779 15.6029 29.3415 13.6641 33.8651 13.4028C38.9772 13.104 43.996 14.8972 47.6352 18.3289C51.1108 21.6062 53.0249 25.991 53.0249 30.6624C53.0243 35.9994 50.4877 40.9747 46.0648 44.3Z" fill="black"/>
<path d="M34.1797 2.46094H35.8203V9.43359H34.1797V2.46094Z" fill="black"/>
<path d="M57.1484 30.7617H64.1211V32.4023H57.1484V30.7617Z" fill="black"/>
<path d="M5.87891 30.7617H12.8516V32.4023H5.87891V30.7617Z" fill="black"/>
<path d="M50.0996 15.3022L55.0388 10.363L56.1987 11.5228L51.2594 16.4621L50.0996 15.3022Z" fill="black"/>
<path d="M13.7876 51.6035L18.7268 46.6643L19.8867 47.8241L14.9474 52.7633L13.7876 51.6035Z" fill="black"/>
<path d="M50.0938 47.8247L51.2536 46.6649L56.1928 51.6041L55.033 52.764L50.0938 47.8247Z" fill="black"/>
<path d="M13.7925 11.5161L14.9523 10.3563L19.8915 15.2955L18.7317 16.4553L13.7925 11.5161Z" fill="black"/>
<path d="M22.8836 19.7933C19.9697 22.7665 18.3571 26.6038 18.3428 30.5982L19.9834 30.6041C19.9961 27.0394 21.4422 23.608 24.0554 20.9419C25.8561 19.1064 28.092 17.7566 30.5549 17.0181L30.085 15.4458C27.3561 16.2641 24.8787 17.7597 22.8836 19.7933Z" fill="black"/>
<path d="M32.0957 14.9764L32.3704 16.5938C32.9235 16.5001 33.4812 16.4366 34.0412 16.4035L33.9455 14.7659C33.3255 14.8023 32.708 14.8726 32.0957 14.9764Z" fill="black"/>
</svg>
