<svg width="58" height="58" viewBox="0 0 58 58" fill="none" xmlns="http://www.w3.org/2000/svg">
<path d="M28.9998 52.0746C28.8842 52.0746 28.7702 52.0489 28.6657 51.9996C28.5612 51.9503 28.4689 51.8785 28.3955 51.7893L1.74682 19.4661C1.65233 19.3515 1.59237 19.2123 1.57393 19.0649C1.55549 18.9175 1.57933 18.7679 1.64266 18.6335C1.70599 18.4991 1.80622 18.3855 1.93165 18.3059C2.05708 18.2263 2.20255 18.1839 2.35112 18.1838H55.6484C55.797 18.1839 55.9425 18.2263 56.0679 18.3059C56.1933 18.3855 56.2935 18.4991 56.3569 18.6335C56.4202 18.7679 56.444 18.9175 56.4256 19.0649C56.4072 19.2123 56.3472 19.3515 56.2527 19.4661L29.6041 51.7893C29.5306 51.8785 29.4383 51.9503 29.3338 51.9996C29.2294 52.0489 29.1153 52.0746 28.9998 52.0746ZM4.01352 19.7514L28.9998 50.0588L53.986 19.7514H4.01352Z" fill="black"/>
<path d="M29 52.0746C28.8443 52.0746 28.6921 52.0283 28.5628 51.9414C28.4335 51.8546 28.3331 51.7312 28.2742 51.5871L15.0635 19.2646C15.0149 19.1456 14.9964 19.0164 15.0094 18.8885C15.0225 18.7606 15.0669 18.6379 15.1386 18.5312C15.2103 18.4245 15.3072 18.337 15.4207 18.2766C15.5341 18.2162 15.6607 18.1845 15.7893 18.1846H42.2107C42.3392 18.1845 42.4658 18.2162 42.5793 18.2766C42.6928 18.337 42.7897 18.4245 42.8614 18.5312C42.9331 18.6379 42.9774 18.7606 42.9905 18.8885C43.0036 19.0164 42.9851 19.1456 42.9364 19.2646L29.7258 51.5871C29.6669 51.7312 29.5664 51.8546 29.4372 51.9414C29.3079 52.0283 29.1557 52.0746 29 52.0746ZM16.9564 19.7514L29 49.2216L41.0436 19.7514H16.9564Z" fill="black"/>
<path d="M55.6488 19.7515H2.35146C2.20822 19.7514 2.06772 19.7122 1.94524 19.6379C1.82276 19.5636 1.72298 19.4572 1.65673 19.3302C1.59049 19.2032 1.56031 19.0605 1.56948 18.9175C1.57865 18.7746 1.62682 18.6369 1.70875 18.5194L10.2677 6.261C10.3399 6.15746 10.436 6.0729 10.5479 6.01449C10.6598 5.95609 10.7842 5.92557 10.9104 5.92554H47.0898C47.2161 5.92557 47.3404 5.95609 47.4523 6.01449C47.5642 6.0729 47.6603 6.15746 47.7325 6.261L56.2915 18.5194C56.3734 18.6369 56.4216 18.7746 56.4307 18.9175C56.4399 19.0605 56.4097 19.2032 56.3435 19.3302C56.2772 19.4572 56.1775 19.5636 56.055 19.6379C55.9325 19.7122 55.792 19.7514 55.6488 19.7515ZM3.85475 18.1839H54.1455L46.6815 7.49311H11.3187L3.85475 18.1839Z" fill="black"/>
<path d="M42.2105 19.7515H15.7891C15.6572 19.751 15.5275 19.7172 15.4121 19.6532C15.2967 19.5893 15.1994 19.4972 15.129 19.3856C15.0587 19.274 15.0176 19.1464 15.0097 19.0147C15.0018 18.883 15.0273 18.7515 15.0837 18.6322L20.8947 6.37386C20.958 6.24019 21.0578 6.12716 21.1827 6.04783C21.3075 5.96849 21.4522 5.9261 21.6001 5.92554H36.3995C36.5474 5.9261 36.6921 5.96849 36.817 6.04783C36.9418 6.12716 37.0416 6.24019 37.1049 6.37386L42.9159 18.6322C42.9724 18.7515 42.9978 18.883 42.9899 19.0147C42.982 19.1464 42.941 19.274 42.8706 19.3856C42.8003 19.4972 42.7029 19.5893 42.5875 19.6532C42.4721 19.7172 42.3424 19.751 42.2105 19.7515ZM17.0283 18.1839H40.9713L35.9042 7.49311H22.0955L17.0283 18.1839Z" fill="black"/>
</svg>
