<svg width="25" height="27" viewBox="0 0 25 27" fill="none" xmlns="http://www.w3.org/2000/svg">
<path d="M22.0703 1.40576H2.92969C1.31416 1.40576 0 2.75775 0 4.41978V21.0973C0 23.3133 1.75228 25.116 3.90625 25.116H14.9414C15.4808 25.116 15.918 24.6663 15.918 24.1114C15.918 23.5564 15.4808 23.1067 14.9414 23.1067H3.90625C2.82936 23.1067 1.95312 22.2052 1.95312 21.0973V7.48403H23.0469V16.727C23.0469 17.2819 23.484 17.7317 24.0234 17.7317C24.5628 17.7317 25 17.2819 25 16.727V4.41978C25 2.75775 23.6858 1.40576 22.0703 1.40576ZM18.1152 3.41511C18.6537 3.41511 19.0918 3.86583 19.0918 4.41978C19.0918 4.97372 18.6537 5.42445 18.1152 5.42445C17.5768 5.42445 17.1387 4.97372 17.1387 4.41978C17.1387 3.86583 17.5768 3.41511 18.1152 3.41511ZM22.998 4.41978C22.998 4.97372 22.5599 5.42445 22.0215 5.42445C21.483 5.42445 21.0449 4.97372 21.0449 4.41978C21.0449 3.86583 21.483 3.41511 22.0215 3.41511C22.5599 3.41511 22.998 3.86583 22.998 4.41978ZM1.95312 4.41978C1.95312 3.86583 2.39124 3.41511 2.92969 3.41511H15.3536C15.2451 3.72965 15.1855 4.06755 15.1855 4.41978C15.1855 4.79084 15.2514 5.1462 15.3711 5.47468H1.95312V4.41978ZM18.7931 15.4604C18.6794 15.3432 18.5394 15.2567 18.3855 15.2086L14.5416 14.0075C14.2008 13.901 13.8308 13.9938 13.5757 14.2497C13.3209 14.5055 13.2215 14.8839 13.3167 15.2371L14.4085 19.2921C14.4535 19.4591 14.5395 19.6111 14.6585 19.7336L19.9987 25.2379C20.5698 25.8254 21.3202 26.1193 22.0703 26.1193C22.8205 26.1193 23.5706 25.8254 24.1419 25.2379C25.2842 24.0627 25.2842 22.1507 24.1426 20.9763L18.7931 15.4604ZM15.6729 16.4609L17.5835 17.058L21.1931 20.7798L19.8118 22.2009L16.2222 18.5011L15.6729 16.4609ZM22.7608 23.817C22.3801 24.2089 21.7606 24.2089 21.3804 23.8178L21.1916 23.6231L22.5727 22.2023L22.761 22.3963C23.1417 22.788 23.1417 23.4253 22.7608 23.817Z" fill="#83838E"/>
</svg>
