<svg width="30" height="8" viewBox="0 0 30 8" fill="none" xmlns="http://www.w3.org/2000/svg">
<path d="M1.09836 1.34835C-0.366099 2.81281 -0.366099 5.18719 1.09836 6.65165C2.56282 8.11611 4.93719 8.11611 6.40165 6.65165C7.86612 5.18719 7.86612 2.81281 6.40165 1.34835C4.93719 -0.116116 2.56282 -0.116116 1.09836 1.34835Z" fill="black"/>
<path d="M12.3484 1.34835C10.8839 2.81281 10.8839 5.18719 12.3484 6.65165C13.8128 8.11611 16.1872 8.11611 17.6517 6.65165C19.1161 5.18719 19.1161 2.81281 17.6517 1.34835C16.1872 -0.116116 13.8128 -0.116116 12.3484 1.34835Z" fill="black"/>
<path d="M23.5984 1.34835C22.1339 2.81281 22.1339 5.18719 23.5984 6.65165C25.0628 8.11611 27.4372 8.11611 28.9017 6.65165C30.3661 5.18719 30.3661 2.81281 28.9017 1.34835C27.4372 -0.116116 25.0628 -0.116116 23.5984 1.34835Z" fill="black"/>
</svg>
