<svg width="22" height="22" viewBox="0 0 22 22" fill="none" xmlns="http://www.w3.org/2000/svg">
<path d="M19.6087 0.478271H2.39129C1.07322 0.478271 0 1.55149 0 2.86956V13.3913C0 14.7094 1.07322 15.7826 2.39129 15.7826H4.30435C4.56835 15.7826 4.78262 15.5683 4.78262 15.3043C4.78262 15.0403 4.56835 14.826 4.30435 14.826H2.39129C1.60023 14.826 0.956506 14.1823 0.956506 13.3913V2.86956C0.956506 2.0785 1.60023 1.43478 2.39129 1.43478H19.6087C20.3997 1.43478 21.0435 2.0785 21.0435 2.86956V13.3913C21.0435 14.1824 20.3997 14.8261 19.6087 14.8261H17.6956C17.4316 14.8261 17.2173 15.0404 17.2173 15.3044C17.2173 15.5684 17.4316 15.7826 17.6956 15.7826H19.6087C20.9267 15.7826 22 14.7094 22 13.3914V2.86956C22 1.55149 20.9268 0.478271 19.6087 0.478271Z" fill="white"/>
<path d="M19.9972 2.58937C19.8422 2.37509 19.5438 2.32631 19.3295 2.48225L11.8973 7.84928C11.3531 8.24241 10.6481 8.24241 10.1039 7.84928L2.6717 2.48225C2.45648 2.32635 2.15804 2.37514 2.00403 2.58937C1.84907 2.80364 1.89691 3.10302 2.11114 3.25703L9.54331 8.62406C9.97855 8.93877 10.4893 9.0966 11.0001 9.0966C11.5109 9.0966 12.0217 8.93971 12.4578 8.62406L19.89 3.25703C20.1034 3.10302 20.1521 2.80364 19.9972 2.58937Z" fill="white"/>
<path d="M7.51175 8.27099C7.32523 8.08447 7.022 8.08447 6.83548 8.27099L2.05286 13.0536C1.86633 13.2401 1.86633 13.5434 2.05286 13.7299C2.14661 13.8227 2.26901 13.8696 2.39146 13.8696C2.51391 13.8696 2.63632 13.8227 2.72913 13.7299L7.51175 8.94727C7.69828 8.76075 7.69828 8.45752 7.51175 8.27099Z" fill="white"/>
<path d="M19.9464 13.0536L15.1638 8.27099C14.9773 8.08447 14.6741 8.08447 14.4875 8.27099C14.301 8.45752 14.301 8.76075 14.4875 8.94727L19.2702 13.7299C19.3639 13.8227 19.4863 13.8696 19.6088 13.8696C19.7312 13.8696 19.8536 13.8227 19.9464 13.7299C20.133 13.5434 20.133 13.2401 19.9464 13.0536Z" fill="white"/>
<path d="M11.0001 11C8.09898 11 5.73926 13.3598 5.73926 16.2609C5.73926 19.162 8.09898 21.5217 11.0001 21.5217C12.3737 21.5217 13.6726 20.9966 14.6579 20.042C14.8482 19.8583 14.853 19.5551 14.6693 19.3657C14.4857 19.1754 14.1834 19.1725 13.9931 19.3542C13.1867 20.1357 12.1231 20.5652 11.0001 20.5652C8.62698 20.5652 6.69576 18.634 6.69576 16.2608C6.69576 13.8877 8.62698 11.9565 11.0001 11.9565C13.3732 11.9565 15.3045 13.8877 15.3045 16.2608C15.3045 16.5248 15.5187 16.7391 15.7827 16.7391C16.0467 16.7391 16.261 16.5248 16.261 16.2608C16.261 13.3598 13.9012 11 11.0001 11Z" fill="#D79D4B"/>
<path d="M11.0002 13.8696C9.6821 13.8696 8.60889 14.9428 8.60889 16.2609C8.60889 17.579 9.6821 18.6522 11.0002 18.6522C12.3182 18.6522 13.3915 17.579 13.3915 16.261C13.3915 14.9429 12.3183 13.8696 11.0002 13.8696ZM11.0002 17.6957C10.2091 17.6957 9.56539 17.052 9.56539 16.261C9.56539 15.4699 10.2091 14.8262 11.0002 14.8262C11.7912 14.8262 12.435 15.4699 12.435 16.261C12.435 17.052 11.7912 17.6957 11.0002 17.6957Z" fill="#D79D4B"/>
<path d="M15.7828 15.7827C15.5188 15.7827 15.3045 15.997 15.3045 16.261C15.3045 17.3342 15.0635 17.6958 14.348 17.6958C13.7129 17.6958 13.3915 17.2127 13.3915 16.261C13.3915 15.997 13.1772 15.7827 12.9132 15.7827C12.6492 15.7827 12.4349 15.997 12.4349 16.261C12.4349 17.7579 13.1504 18.6523 14.348 18.6523C16.261 18.6523 16.261 16.8521 16.261 16.261C16.261 15.997 16.0468 15.7827 15.7828 15.7827Z" fill="#D79D4B"/>
</svg>
