<svg width="31" height="35" viewBox="0 0 31 35" fill="none" xmlns="http://www.w3.org/2000/svg">
<path d="M20.604 1.45833H10.3957C9.9932 1.45833 9.6665 1.13167 9.6665 0.729167C9.6665 0.326667 9.9932 0 10.3957 0H20.604C21.0065 0 21.3332 0.326667 21.3332 0.729167C21.3332 1.13167 21.0065 1.45833 20.604 1.45833Z" fill="white"/>
<path d="M18.7813 5.83333H16.2292C15.8267 5.83333 15.5 5.50667 15.5 5.10417C15.5 4.70167 15.8267 4.375 16.2292 4.375H18.7813C19.1838 4.375 19.5104 4.70167 19.5104 5.10417C19.5104 5.50667 19.1838 5.83333 18.7813 5.83333Z" fill="white"/>
<path d="M18.7813 10.2083H16.2292C15.8267 10.2083 15.5 9.88167 15.5 9.47917C15.5 9.07667 15.8267 8.75 16.2292 8.75H18.7813C19.1838 8.75 19.5104 9.07667 19.5104 9.47917C19.5104 9.88167 19.1838 10.2083 18.7813 10.2083Z" fill="white"/>
<path d="M24.2498 35H6.74984C3.53275 35 0.916504 32.3838 0.916504 29.1667C0.916504 28.0044 1.25775 26.8829 1.90234 25.9204L10.2586 13.4633C10.8259 12.619 11.1248 11.636 11.1248 10.6196V0.729167C11.1248 0.326667 11.4515 0 11.854 0C12.2565 0 12.5832 0.326667 12.5832 0.729167V10.6196C12.5832 11.9263 12.1982 13.1906 11.4705 14.2756L3.11275 26.7327C2.63005 27.4531 2.37484 28.2946 2.37484 29.1667C2.37484 31.5788 4.33775 33.5417 6.74984 33.5417H24.2498C26.6619 33.5417 28.6248 31.5788 28.6248 29.1667C28.6248 28.2946 28.3696 27.4531 27.8869 26.7327L19.5307 14.2756C18.8015 13.1906 18.4165 11.9263 18.4165 10.6196V0.729167C18.4165 0.326667 18.7432 0 19.1457 0C19.5482 0 19.8748 0.326667 19.8748 0.729167V10.6196C19.8748 11.6346 20.1738 12.619 20.7411 13.4633L29.0973 25.9204C29.7419 26.8829 30.0832 28.0044 30.0832 29.1667C30.0832 32.3838 27.4669 35 24.2498 35Z" fill="white"/>
<path d="M24.2498 30.6251H6.74984C5.9463 30.6251 5.2915 29.9717 5.2915 29.1667C5.2915 28.8721 5.379 28.5878 5.5438 28.3457C5.55984 28.3224 5.57588 28.3019 5.59484 28.2801L10.7267 20.7215C10.8521 20.5348 11.0592 20.4167 11.2853 20.4036C11.6921 20.3788 12.0742 20.2738 12.3907 20.0988L13.5223 19.4601C14.7269 18.7951 16.2728 18.7951 17.47 19.4571L18.6134 20.1003C18.924 20.2723 19.3076 20.3773 19.713 20.4021C19.939 20.4153 20.1446 20.5334 20.2715 20.7201L25.4019 28.2786C25.4194 28.299 25.4369 28.3209 25.453 28.3442C25.6207 28.5878 25.7082 28.8721 25.7082 29.1667C25.7082 29.9717 25.0534 30.6251 24.2498 30.6251ZM11.7417 21.8211L6.75421 29.1682L24.244 29.1667L19.258 21.8211C18.7709 21.7511 18.3086 21.5994 17.9046 21.3748L16.7613 20.7317C16.0088 20.3176 14.9923 20.3161 14.2355 20.7346L13.1038 21.3734C12.6925 21.5994 12.2288 21.7511 11.7417 21.8211Z" fill="#D79D4B"/>
</svg>
