<svg width="25" height="25" viewBox="0 0 25 25" fill="none" xmlns="http://www.w3.org/2000/svg">
<path d="M22.8027 0.78125H2.19727C0.985693 0.78125 0 1.76694 0 2.97852V17.627C0 18.8385 0.985693 19.8242 2.19727 19.8242H4.44336V23.4863C4.44336 23.7826 4.62183 24.0497 4.89551 24.163C5.16924 24.2763 5.48423 24.2137 5.6937 24.0042L9.87368 19.8242H22.8027C24.0143 19.8242 25 18.8385 25 17.627V2.97852C25 1.76694 24.0143 0.78125 22.8027 0.78125ZM23.5352 17.627C23.5352 18.0308 23.2066 18.3594 22.8027 18.3594H9.57031C9.37607 18.3594 9.18979 18.4366 9.05244 18.5739L5.9082 21.7181V19.0918C5.9082 18.6873 5.58027 18.3594 5.17578 18.3594H2.19727C1.79341 18.3594 1.46484 18.0308 1.46484 17.627V2.97852C1.46484 2.57466 1.79341 2.24609 2.19727 2.24609H22.8027C23.2066 2.24609 23.5352 2.57466 23.5352 2.97852V17.627Z" fill="#83838E"/>
<path d="M17.4588 6.28701C16.8444 5.6041 15.9937 5.22803 15.0635 5.22803C14.0441 5.22803 13.1591 5.69258 12.5 6.57236C11.8409 5.69258 10.9559 5.22803 9.93652 5.22803C8.03008 5.22803 6.64062 6.79541 6.64062 8.7126C6.64062 9.70732 7.02563 10.619 7.85225 11.582C8.79971 12.6856 10.2726 13.8051 12.0233 15.3056C12.1605 15.4232 12.3302 15.4819 12.5 15.4819C12.6698 15.4819 12.8395 15.4231 12.9767 15.3056C14.7253 13.8068 16.2 12.686 17.1478 11.582C17.9744 10.619 18.3594 9.70732 18.3594 8.7126C18.3594 7.79394 18.0396 6.93252 17.4588 6.28701ZM13.3609 13.0663C13.0817 13.2994 12.7962 13.5377 12.5 13.7879C12.2038 13.5377 11.9183 13.2995 11.6391 13.0663C9.4355 11.227 8.10547 10.1166 8.10547 8.7126C8.10547 7.56118 8.89268 6.69287 9.93652 6.69287C11.294 6.69287 11.7746 8.28608 11.7956 8.35825C11.8851 8.67285 12.1726 8.89014 12.5 8.89014C12.8285 8.89014 13.1167 8.67148 13.2053 8.35518C13.2099 8.33857 13.6867 6.69287 15.0635 6.69287C16.1073 6.69287 16.8945 7.56118 16.8945 8.7126C16.8945 10.1166 15.5645 11.227 13.3609 13.0663Z" fill="#83838E"/>
</svg>
