<svg width="26" height="21" viewBox="0 0 26 21" fill="none" xmlns="http://www.w3.org/2000/svg">
<path d="M25.4797 7.56405C24.9556 6.89484 24.1042 6.49523 23.2021 6.49523H22.2946V5.66202C22.2946 4.13031 20.9276 2.88429 19.2475 2.88429H11.7182C11.3518 2.88429 11.0126 2.70365 10.8329 2.41272L10.2225 1.42364C9.68573 0.55426 8.66813 0.0141602 7.56701 0.0141602H3.04708C1.36693 0.0141602 0 1.25765 0 2.78592V17.6957C0 19.2272 1.36693 20.4732 3.04708 20.4732H18.9539C20.6886 20.4732 22.2327 19.4686 22.7962 17.9732C22.9785 17.4895 22.6963 16.963 22.1656 16.7968C21.6352 16.6306 21.0574 16.888 20.8751 17.3716C20.5932 18.1191 19.8212 18.6216 18.9539 18.6216H5.9422C5.94538 18.6137 5.94875 18.6061 5.95172 18.5983L9.63773 8.8189C9.74405 8.5365 10.0356 8.3468 10.363 8.3468H23.2021C23.453 8.3468 23.6807 8.4537 23.8263 8.6399C23.9721 8.826 24.009 9.0569 23.9275 9.2733L22.4537 13.1833C22.2714 13.667 22.5538 14.1938 23.0843 14.3599C23.6149 14.5261 24.1927 14.2686 24.3748 13.7851L25.8487 9.8749C26.1418 9.0972 26.0038 8.2333 25.4797 7.56405ZM7.71637 8.2172L4.03037 17.9965C3.88953 18.3703 3.50351 18.6216 3.06989 18.6216H3.04708C2.48709 18.6216 2.03145 18.2063 2.03145 17.6957V2.78592C2.03145 2.27855 2.48709 1.86592 3.04708 1.86592H7.56701C7.93557 1.86592 8.27457 2.04439 8.45211 2.33189L9.06267 3.32079C9.60163 4.19378 10.6192 4.73605 11.7182 4.73605H19.2475C19.8077 4.73605 20.2633 5.15139 20.2633 5.66184V6.49523H10.363C9.1682 6.49523 8.10477 7.18722 7.71637 8.2172Z" fill="#83838E"/>
</svg>
