<svg width="40" height="40" viewBox="0 0 40 40" fill="none" xmlns="http://www.w3.org/2000/svg">
<path d="M20.0008 30.909C19.4988 30.909 19.0918 30.502 19.0918 29.9999C19.0918 29.4978 19.4988 29.0908 20.0008 29.0908C20.5029 29.0908 20.9099 29.4978 20.9099 29.9999C20.9099 30.502 20.5029 30.909 20.0008 30.909Z" fill="white"/>
<path d="M27.2734 32.7271H37.2733C37.7743 32.7271 38.1824 32.3198 38.1824 31.818V8.18177C38.1824 7.67997 37.7742 7.27271 37.2733 7.27271H33.637C33.1352 7.27271 32.728 6.86638 32.728 6.36365C32.728 5.86092 33.1352 5.45459 33.637 5.45459H37.2733C38.777 5.45459 40.0006 6.67826 40.0006 8.18184V31.818C40.0006 33.3217 38.7769 34.5453 37.2733 34.5453H27.2734C26.7716 34.5453 26.3643 34.1389 26.3643 33.6362C26.3643 33.1335 26.7716 32.7271 27.2734 32.7271Z" fill="white"/>
<path d="M4.54627 25.4546H35.4552C35.957 25.4546 36.3643 25.8609 36.3643 26.3637C36.3643 26.8664 35.957 27.2727 35.4552 27.2727H4.54627C4.04447 27.2727 3.63721 26.8664 3.63721 26.3637C3.63721 25.861 4.04447 25.4546 4.54627 25.4546Z" fill="#D79D4B"/>
<path d="M2.72831 5.45459H6.36461C6.8664 5.45459 7.27367 5.86092 7.27367 6.36365C7.27367 6.86638 6.8664 7.27271 6.36461 7.27271H2.72831C2.22737 7.27271 1.81925 7.67997 1.81925 8.18176V31.818C1.81925 32.3198 2.22745 32.727 2.72831 32.727H23.6373C24.139 32.727 24.5463 33.1333 24.5463 33.6361V37.2724C24.5463 37.7742 24.9545 38.1814 25.4554 38.1814H26.3644C26.8662 38.1814 27.2735 38.5878 27.2735 39.0905C27.2735 39.5932 26.8662 39.9996 26.3644 39.9996H13.6372C13.1354 39.9996 12.7282 39.5932 12.7282 39.0905C12.7282 38.5878 13.1354 38.1814 13.6372 38.1814H14.5464C15.0473 38.1814 15.4554 37.7742 15.4554 37.2724V34.5451H2.72823C1.22457 34.5451 0.000976562 33.3215 0.000976562 31.8179V8.18184C0.00105476 6.67826 1.22464 5.45459 2.72831 5.45459ZM22.8955 38.1817C22.7937 37.8962 22.7282 37.5926 22.7282 37.2726V34.5454H17.2737V37.2726C17.2737 37.5926 17.2082 37.8963 17.1064 38.1817H22.8955Z" fill="white"/>
<path d="M20.9681 6.39473L24.6844 0.448435C25.0135 -0.148827 25.8899 -0.148827 26.2262 0.448435L29.9417 6.39473C30.5753 7.40652 30.9099 8.57198 30.9099 9.76744V22.7483C30.9099 23.251 30.5026 23.6573 30.0008 23.6573C29.499 23.6573 29.0918 23.251 29.0918 22.7483V9.76744C29.0918 8.91471 28.8527 8.08198 28.4008 7.35925L26.0881 3.65834H24.8236L22.5109 7.35925C22.3445 7.62558 22.2163 7.91105 22.1091 8.20378H27.2736C27.7754 8.20378 28.1826 8.61011 28.1826 9.11284C28.1826 9.61557 27.7754 10.0219 27.2736 10.0219H21.8191V22.7491C21.8191 23.2518 21.4118 23.6581 20.91 23.6581C20.4082 23.6581 20.001 23.2518 20.001 22.7491V9.76744C20.0009 8.57292 20.3354 7.40652 20.9681 6.39473Z" fill="#D79D4B"/>
<path d="M25.4555 11.8184C25.9573 11.8184 26.3645 12.2247 26.3645 12.7275V22.7274C26.3645 23.2301 25.9573 23.6365 25.4555 23.6365C24.9537 23.6365 24.5464 23.2301 24.5464 22.7274V12.7275C24.5464 12.2247 24.9536 11.8184 25.4555 11.8184Z" fill="#D79D4B"/>
<path d="M10.2881 13.5573C10.4463 13.0818 10.959 12.8236 11.4381 12.9828C11.9144 13.141 12.1718 13.6555 12.0126 14.1328C11.2808 16.3282 10.9099 18.6155 10.9099 20.93V22.7482C10.9099 23.2509 10.5026 23.6573 10.0008 23.6573C9.49906 23.6573 9.0918 23.2509 9.0918 22.7482V20.93C9.09172 18.4191 9.49445 15.9391 10.2881 13.5573Z" fill="#D79D4B"/>
<path d="M14.8009 12.7482H13.6372C11.1309 12.7482 9.0918 10.8728 9.0918 8.56651C9.0918 5.62473 12.5436 0.93476 12.9063 0.389295C13.2508 -0.129765 14.0254 -0.129765 14.3672 0.389295C14.729 0.936557 18.1827 5.62473 18.1827 8.56651C18.1827 8.80378 18.1609 9.04198 18.1172 9.27651C18.0254 9.77018 17.5535 10.0983 17.0572 10.0055C16.5636 9.91377 16.2372 9.4401 16.329 8.94651C16.3527 8.82284 16.3645 8.69651 16.3645 8.56651C16.3645 6.97746 14.7682 4.22381 13.6372 2.51928C12.5063 4.22295 10.91 6.97473 10.91 8.56651C10.91 9.87018 12.1337 10.9301 13.6372 10.9301H15.4554C15.8472 10.9301 16.1936 11.1801 16.3182 11.5519L16.9864 13.5574C17.78 15.9392 18.1827 18.4192 18.1827 20.9301V22.7483C18.1827 23.251 17.7754 23.6573 17.2736 23.6573C16.7718 23.6573 16.3646 23.251 16.3646 22.7483V20.9301C16.3646 20.6255 16.3409 20.3238 16.3282 20.021H13.6373C13.1355 20.021 12.7283 19.6147 12.7283 19.112C12.7283 18.6092 13.1355 18.2029 13.6373 18.2029H16.1746C15.9982 16.8229 15.7046 15.4602 15.2618 14.132L14.8009 12.7482Z" fill="#D79D4B"/>
</svg>
