<svg width="21" height="21" viewBox="0 0 21 21" fill="none" xmlns="http://www.w3.org/2000/svg">
<path d="M0 0V21H21V0H0ZM19.7695 1.23047V4.92581H1.23047V1.23047H19.7695ZM1.23047 19.7695V6.15628H19.7695V19.7695H1.23047Z" fill="#83838E"/>
<path d="M2.4624 2.46289H3.69382V3.69336H2.4624V2.46289Z" fill="#83838E"/>
<path d="M4.92529 2.46289H6.15675V3.69336H4.92529V2.46289Z" fill="#83838E"/>
<path d="M7.38843 2.46289H8.61988V3.69336H7.38843V2.46289Z" fill="#83838E"/>
<path d="M7.98294 12.008C8.49506 11.5195 8.81511 10.8313 8.81511 10.0694C8.81511 8.59121 7.61257 7.38867 6.13441 7.38867C4.65625 7.38867 3.45371 8.59125 3.45371 10.0694C3.45371 10.8313 3.77376 11.5195 4.28588 12.008C3.1518 12.6534 2.38525 13.8732 2.38525 15.2688V18.537H9.88353V15.2688C9.88357 13.8732 9.11703 12.6534 7.98294 12.008ZM4.68418 10.0693C4.68418 9.26965 5.33473 8.6191 6.13441 8.6191C6.93409 8.6191 7.58464 9.26969 7.58464 10.0693C7.58464 10.869 6.93409 11.5196 6.13441 11.5196C5.33473 11.5196 4.68418 10.869 4.68418 10.0693ZM8.6531 17.3065H3.61572V15.2687C3.61572 13.8799 4.74562 12.75 6.13441 12.75C7.5232 12.75 8.65306 13.8799 8.65306 15.2687V17.3065H8.6531Z" fill="#83838E"/>
<path d="M11.1157 8.65332H18.5376V9.88379H11.1157V8.65332Z" fill="#83838E"/>
<path d="M11.1157 11.1162H18.5376V12.3467H11.1157V11.1162Z" fill="#83838E"/>
<path d="M11.1157 13.5791H18.5376V14.8096H11.1157V13.5791Z" fill="#83838E"/>
<path d="M11.1157 16.042H18.5376V17.2725H11.1157V16.042Z" fill="#83838E"/>
</svg>
