<svg width="37" height="37" viewBox="0 0 37 37" fill="none" xmlns="http://www.w3.org/2000/svg">
<path d="M36.5869 11.6504L18.8577 2.40036C18.6342 2.28321 18.3675 2.28321 18.1439 2.40036L0.414805 11.6504C0.160357 11.783 0 12.045 0 12.3333C0 12.6216 0.160357 12.8837 0.414732 13.0163L18.1439 22.2663C18.2549 22.3249 18.3782 22.3542 18.5 22.3542C18.6218 22.3542 18.7451 22.3249 18.8561 22.2663L36.5853 13.0163C36.8396 12.8837 37 12.6217 37 12.3333C37 12.045 36.8396 11.783 36.5869 11.6504ZM18.5 20.7154L2.43738 12.3333L18.5 3.95125L34.5626 12.3333L18.5 20.7154Z" fill="white"/>
<path d="M36.5869 17.8154L34.0092 16.471C33.6331 16.2783 33.1659 16.4202 32.9686 16.7979C32.7712 17.1756 32.9177 17.6412 33.2954 17.8385L34.5626 18.4999L18.5 26.8819L2.43738 18.4999L3.70614 17.84C4.08388 17.6427 4.23029 17.1771 4.033 16.7994C3.83564 16.4202 3.36852 16.2799 2.99238 16.4726L0.414732 17.8169C0.160357 17.9495 0 18.2116 0 18.4999C0 18.7882 0.160357 19.0503 0.414732 19.1829L18.1439 28.4329C18.2549 28.4915 18.3782 28.5208 18.5 28.5208C18.6218 28.5208 18.7451 28.4915 18.8561 28.4329L36.5853 19.1829C36.8396 19.0503 37 18.7882 37 18.4999C37 18.2116 36.8396 17.9495 36.5869 17.8154Z" fill="#D79D4B"/>
<path d="M36.5869 23.9821L34.0092 22.6378C33.6331 22.4451 33.1659 22.5869 32.9686 22.9646C32.7712 23.3424 32.9177 23.8079 33.2954 24.0053L34.5627 24.6666L18.5 33.0487L2.43738 24.6666L3.70614 24.0068C4.08388 23.8094 4.23029 23.3439 4.033 22.9662C3.83564 22.5884 3.36852 22.4451 2.99238 22.6393L0.414732 23.9837C0.160357 24.1163 0 24.3784 0 24.6666C0 24.9549 0.160357 25.217 0.414732 25.3496L18.1439 34.5996C18.2549 34.6582 18.3782 34.6875 18.5 34.6875C18.6218 34.6875 18.7451 34.6582 18.8561 34.5996L36.5853 25.3496C36.8396 25.217 37 24.955 37 24.6666C37 24.3784 36.8396 24.1163 36.5869 23.9821Z" fill="white"/>
</svg>
