<svg width="56" height="56" viewBox="0 0 56 56" fill="none" xmlns="http://www.w3.org/2000/svg">
<path d="M11.8872 15.8711L12.4123 14.6687L13.7869 15.269L13.2619 16.4714L11.8872 15.8711Z" fill="black"/>
<path d="M14.6016 17.0017L15.1305 15.8008L26.3857 20.758L25.8568 21.9589L14.6016 17.0017Z" fill="black"/>
<path d="M52.6903 15.6492C52.6903 15.5215 52.653 15.3966 52.5831 15.2897C52.5132 15.1829 52.4136 15.0988 52.2965 15.0477L28.2623 4.55259C28.1795 4.51645 28.0902 4.4978 27.9998 4.4978C27.9095 4.4978 27.8201 4.51645 27.7373 4.55259L3.70306 15.0478C3.58597 15.0988 3.48632 15.1829 3.41634 15.2898C3.34636 15.3967 3.30908 15.5216 3.30908 15.6493C3.30908 15.7771 3.34636 15.902 3.41634 16.0089C3.48632 16.1157 3.58597 16.1999 3.70306 16.2509L12.2573 19.9864L3.71859 23.4587C3.599 23.5073 3.4964 23.5902 3.42364 23.6968C3.35088 23.8034 3.3112 23.9292 3.30955 24.0583C3.3079 24.1874 3.34437 24.3141 3.41438 24.4225C3.4844 24.531 3.58485 24.6164 3.70317 24.6681L12.0025 28.2923L3.71925 31.6489C3.59952 31.6974 3.49677 31.7802 3.42386 31.8868C3.35096 31.9935 3.31115 32.1192 3.30942 32.2484C3.3077 32.3776 3.34413 32.5044 3.41415 32.6129C3.48417 32.7215 3.58467 32.8069 3.70306 32.8586L11.8876 36.4326L3.71925 39.7427C3.59952 39.7912 3.49677 39.8739 3.42386 39.9806C3.35096 40.0872 3.31115 40.213 3.30942 40.3422C3.3077 40.4713 3.34413 40.5981 3.41415 40.7067C3.48417 40.8152 3.58467 40.9007 3.70306 40.9524L27.7373 51.4476C27.8201 51.4837 27.9095 51.5023 27.9998 51.5023C28.0902 51.5023 28.1795 51.4837 28.2623 51.4476L52.2965 40.9524C52.4154 40.9005 52.5163 40.8146 52.5864 40.7054C52.6564 40.5962 52.6926 40.4687 52.6903 40.339C52.6879 40.2093 52.6472 40.0832 52.5732 39.9766C52.4992 39.8701 52.3953 39.7878 52.2746 39.7403L43.9975 36.4828L52.2969 32.8586C52.4159 32.8067 52.5167 32.7208 52.5868 32.6116C52.6569 32.5025 52.693 32.375 52.6907 32.2453C52.6884 32.1156 52.6476 31.9895 52.5737 31.8829C52.4997 31.7763 52.3958 31.6941 52.2751 31.6465L43.8814 28.3434L52.2974 24.6684C52.4159 24.6166 52.5166 24.5309 52.5866 24.4222C52.6566 24.3134 52.6929 24.1863 52.6909 24.0569C52.6889 23.9276 52.6487 23.8017 52.5754 23.6951C52.5021 23.5885 52.3989 23.506 52.2788 23.4578L43.6819 20.0134L52.2978 16.2509C52.4146 16.1996 52.514 16.1154 52.5837 16.0085C52.6534 15.9017 52.6904 15.7768 52.6903 15.6492ZM50.322 40.3824L27.9998 50.13L5.65726 40.3738L13.5696 37.1674L27.7373 43.3538C27.8201 43.3899 27.9095 43.4086 27.9998 43.4086C28.0902 43.4086 28.1795 43.3899 28.2623 43.3538L42.2982 37.2247L50.322 40.3824ZM50.322 32.2887L27.9998 42.0363L5.65726 32.28L13.6844 29.0271L27.7373 35.1634C27.8201 35.1995 27.9095 35.2182 27.9998 35.2182C28.0902 35.2182 28.1795 35.1995 28.2623 35.1634L42.1817 29.0851L50.322 32.2887ZM50.3344 24.0927L27.9998 33.8458L5.65453 24.0881L13.937 20.7193L27.7369 26.7459C27.8197 26.782 27.9091 26.8007 27.9994 26.8007C28.0897 26.8007 28.1791 26.782 28.2619 26.7459L41.9922 20.7505L50.3344 24.0927ZM27.9998 25.4284L5.60553 15.6492L27.9998 5.87012L50.3941 15.6492L27.9998 25.4284Z" fill="black"/>
</svg>
