<svg width="23" height="23" viewBox="0 0 23 23" fill="none" xmlns="http://www.w3.org/2000/svg">
<path d="M18.1776 14.2476C17.7067 13.7573 17.1388 13.4952 16.5368 13.4952C15.9398 13.4952 15.367 13.7525 14.8767 14.2428L13.3427 15.7719C13.2165 15.7039 13.0903 15.6408 12.9689 15.5777C12.7942 15.4903 12.6291 15.4078 12.4884 15.3204C11.0515 14.4078 9.74567 13.2185 8.49326 11.6797C7.88647 10.9127 7.47871 10.2671 7.1826 9.61176C7.58065 9.24769 7.94958 8.86905 8.3088 8.50498C8.44472 8.36906 8.58064 8.22829 8.71656 8.09237C9.73596 7.07296 9.73596 5.75259 8.71656 4.73319L7.39133 3.40796C7.24085 3.25748 7.08551 3.10214 6.93988 2.94681C6.64862 2.64584 6.3428 2.33516 6.02727 2.0439C5.55641 1.57789 4.99331 1.33032 4.40108 1.33032C3.80886 1.33032 3.23605 1.57789 2.75062 2.0439C2.74577 2.04876 2.74577 2.04876 2.74091 2.05361L1.09045 3.71864C0.469097 4.33999 0.114733 5.09726 0.0370646 5.97589C-0.0794387 7.39335 0.338031 8.71372 0.658415 9.57778C1.44481 11.6991 2.61955 13.6651 4.37196 15.7719C6.49814 18.3107 9.05636 20.3155 11.9786 21.7281C13.0951 22.2572 14.5854 22.8834 16.2504 22.9902C16.3524 22.9951 16.4592 22.9999 16.5563 22.9999C17.6776 22.9999 18.6193 22.597 19.3572 21.7961C19.362 21.7864 19.3718 21.7815 19.3766 21.7718C19.629 21.466 19.9203 21.1893 20.2261 20.8932C20.4348 20.6941 20.6484 20.4854 20.8572 20.267C21.3377 19.767 21.5902 19.1844 21.5902 18.5874C21.5902 17.9854 21.3329 17.4078 20.8426 16.9223L18.1776 14.2476ZM19.9154 19.3592C19.9106 19.3592 19.9106 19.3641 19.9154 19.3592C19.7261 19.5631 19.5319 19.7475 19.3232 19.9514C19.0077 20.2524 18.6873 20.5679 18.3863 20.9223C17.896 21.4466 17.3184 21.6941 16.5611 21.6941C16.4883 21.6941 16.4106 21.6941 16.3378 21.6893C14.8961 21.597 13.5563 21.0339 12.5515 20.5534C9.80392 19.2233 7.39133 17.335 5.38651 14.9418C3.73119 12.9467 2.62441 11.102 1.89141 9.12148C1.43996 7.91276 1.27491 6.97102 1.34773 6.08268C1.39627 5.51473 1.61471 5.04386 2.01762 4.64096L3.67294 2.98564C3.9108 2.76234 4.16322 2.64098 4.41079 2.64098C4.71661 2.64098 4.96418 2.82545 5.11952 2.98079C5.12437 2.98564 5.12923 2.99049 5.13408 2.99535C5.43019 3.27204 5.71174 3.55845 6.00786 3.86427C6.15834 4.01961 6.31368 4.17494 6.46902 4.33514L7.79424 5.66036C8.3088 6.17492 8.3088 6.65064 7.79424 7.16519C7.65347 7.30597 7.51754 7.44674 7.37677 7.58266C6.96901 8.00013 6.58066 8.38848 6.15834 8.76711C6.14863 8.77682 6.13892 8.78168 6.13407 8.79139C5.7166 9.20886 5.79427 9.61662 5.88164 9.89331C5.8865 9.90787 5.89135 9.92244 5.89621 9.937C6.24086 10.7719 6.72629 11.5583 7.46415 12.4952L7.469 12.5001C8.80879 14.1505 10.2214 15.4369 11.7796 16.4223C11.9786 16.5486 12.1825 16.6505 12.3767 16.7476C12.5515 16.835 12.7165 16.9175 12.8573 17.0049C12.8767 17.0146 12.8961 17.0291 12.9155 17.0388C13.0806 17.1214 13.2359 17.1602 13.3961 17.1602C13.799 17.1602 14.0514 16.9078 14.134 16.8253L15.7941 15.1651C15.9592 15 16.2213 14.801 16.5271 14.801C16.8281 14.801 17.0757 14.9903 17.2261 15.1554C17.231 15.1602 17.231 15.1602 17.2359 15.1651L19.9106 17.8398C20.4106 18.3349 20.4106 18.8446 19.9154 19.3592Z" fill="white"/>
<path d="M12.4303 5.47116C13.7021 5.68475 14.8574 6.28668 15.7798 7.209C16.7021 8.13132 17.2991 9.28664 17.5176 10.5585C17.571 10.8789 17.8477 11.1021 18.1632 11.1021C18.2021 11.1021 18.236 11.0973 18.2749 11.0924C18.6341 11.0342 18.8719 10.6944 18.8137 10.3352C18.5516 8.79636 17.8234 7.39346 16.7118 6.28183C15.6001 5.17019 14.1973 4.44205 12.6584 4.17992C12.2992 4.12166 11.9643 4.35953 11.9012 4.71389C11.8381 5.06825 12.0711 5.41291 12.4303 5.47116Z" fill="#D79D4B"/>
<path d="M22.9738 10.1458C22.5417 7.61183 21.3476 5.30604 19.5126 3.47111C17.6777 1.63618 15.3719 0.442024 12.838 0.00999087C12.4836 -0.0531151 12.1487 0.1896 12.0856 0.543964C12.0273 0.903183 12.2652 1.23813 12.6244 1.30124C14.8865 1.68473 16.9496 2.75753 18.5903 4.39343C20.2311 6.03418 21.299 8.09726 21.6825 10.3594C21.7359 10.6797 22.0126 10.903 22.3281 10.903C22.367 10.903 22.4009 10.8982 22.4398 10.8933C22.7941 10.8399 23.0369 10.5001 22.9738 10.1458Z" fill="#D79D4B"/>
</svg>
