<svg width="94" height="81" viewBox="0 0 94 81" fill="none" xmlns="http://www.w3.org/2000/svg">
<path d="M0.0198197 58.3423C0.0198197 70.5981 9.95452 80.5328 22.2101 80.5328C34.4659 80.5328 44.4006 70.5981 44.4006 58.3423C44.4006 46.0865 34.4659 36.152 22.2101 36.152C19.6914 36.152 17.2804 36.5911 15.0233 37.3649C20.0171 8.72427 42.3513 -9.74568 21.6476 5.45545C-1.30972 22.3118 -0.00476753 57.6642 0.0209206 58.3121C0.0209206 58.3222 0.0198197 58.3312 0.0198197 58.3423Z" fill="white" fill-opacity="0.06"/>
<path d="M48.8385 58.3423C48.8385 70.5981 58.7732 80.5328 71.029 80.5328C83.2848 80.5328 93.2195 70.5981 93.2195 58.3423C93.2195 46.0865 83.2846 36.152 71.0288 36.152C68.5099 36.152 66.099 36.5911 63.842 37.3649C68.8357 8.72427 91.1699 -9.74568 70.4662 5.45545C47.5089 22.3118 48.8137 57.6642 48.8396 58.3121C48.8396 58.3222 48.8385 58.3312 48.8385 58.3423Z" fill="white" fill-opacity="0.06"/>
</svg>
