<svg width="50" height="48" viewBox="0 0 50 48" fill="none" xmlns="http://www.w3.org/2000/svg">
<path d="M49.2686 42.8384H46.0868V16.172C46.0868 14.4731 44.7048 13.0911 43.006 13.0911H33.6124C33.2079 13.0911 32.88 13.419 32.88 13.8235C32.88 14.228 33.2079 14.556 33.6124 14.556H43.006C43.8971 14.556 44.622 15.281 44.622 16.172V42.8385H42.1151C42.1529 42.5619 42.1727 42.2836 42.1727 42.0053C42.1727 38.5799 39.3859 35.7931 35.9605 35.7931C35.4999 35.7931 35.0401 35.8457 34.5867 35.9499C33.7965 34.4272 32.2224 33.4445 30.4808 33.4445C29.9126 33.4445 29.3608 33.5481 28.8412 33.7494C28.6279 31.8193 26.987 30.3132 25.001 30.3132C23.015 30.3132 21.3741 31.8193 21.1608 33.7494C20.6412 33.5481 20.0894 33.4445 19.5212 33.4445C17.7796 33.4445 16.2054 34.4272 15.4153 35.9499C14.9618 35.8456 14.5021 35.7931 14.0415 35.7931C10.616 35.7931 7.8293 38.5799 7.8293 42.0053C7.8293 42.2837 7.84912 42.5619 7.88692 42.8385H5.37998V16.172C5.37998 15.2809 6.10488 14.556 6.996 14.556H16.3899C16.7944 14.556 17.1223 14.228 17.1223 13.8235C17.1223 13.419 16.7944 13.0911 16.3899 13.0911H6.996C5.29717 13.0911 3.91514 14.4732 3.91514 16.172V42.8385H0.733399C0.328906 42.8385 0.000976562 43.1664 0.000976562 43.5709V45.1365C0.000976562 46.4037 1.03194 47.4346 2.29903 47.4346H47.7029C48.9701 47.4346 50.001 46.4036 50.001 45.1365V43.5709C50.001 43.1663 49.6731 42.8384 49.2686 42.8384ZM48.5362 45.1365C48.5362 45.596 48.1623 45.9697 47.7029 45.9697H2.29903C1.83955 45.9697 1.46582 45.5959 1.46582 45.1365V44.3033H10.9099C11.3144 44.3033 11.6423 43.9754 11.6423 43.5709C11.6423 43.1664 11.3144 42.8385 10.9099 42.8385H9.36905C9.31934 42.5624 9.29405 42.2837 9.29405 42.0053C9.29405 39.3876 11.4238 37.2579 14.0414 37.2579C14.5628 37.2579 15.0849 37.3472 15.5932 37.5231C15.7773 37.5869 15.979 37.5747 16.1541 37.4894C16.3291 37.4039 16.4629 37.2523 16.526 37.0681C16.9675 35.777 18.1712 34.9095 19.5213 34.9095C20.2616 34.9095 20.9648 35.1715 21.5548 35.6673C21.8039 35.8766 22.1612 35.8965 22.432 35.7161C22.7028 35.5357 22.8221 35.1984 22.725 34.888C22.6412 34.6198 22.6022 34.3939 22.6022 34.177C22.6022 32.8543 23.6783 31.7782 25.001 31.7782C26.3237 31.7782 27.3998 32.8544 27.3998 34.177C27.3998 34.3939 27.3608 34.6198 27.277 34.888C27.1799 35.1985 27.2993 35.5358 27.57 35.7161C27.8408 35.8964 28.1981 35.8766 28.4472 35.6673C29.0372 35.1716 29.7405 34.9095 30.4807 34.9095C31.8308 34.9095 33.0345 35.777 33.476 37.0681C33.5391 37.2523 33.6729 37.4039 33.8479 37.4894C34.023 37.5748 34.2248 37.587 34.4088 37.5231C34.9171 37.3472 35.4391 37.2579 35.9606 37.2579C38.5783 37.2579 40.7079 39.3876 40.7079 42.0053C40.7079 42.2837 40.6825 42.5624 40.6329 42.8385H14.0417C13.6372 42.8385 13.3093 43.1664 13.3093 43.5709C13.3093 43.9754 13.6372 44.3033 14.0417 44.3033H48.5362V45.1365Z" fill="white"/>
<path d="M15.5885 22.0952C15.1281 22.6477 14.8745 23.3482 14.8745 24.0675V26.3486C14.8745 26.6089 15.0127 26.8497 15.2375 26.9811C15.3516 27.0477 15.4792 27.081 15.6069 27.081C15.731 27.081 15.8551 27.0495 15.9668 26.9865L21.1827 24.0434C21.3814 24.4063 21.5921 24.7633 21.8147 25.1138L21.159 27.7366C21.1042 27.9554 21.1535 28.1871 21.2922 28.365C21.431 28.5428 21.644 28.6467 21.8696 28.6467H28.1322C28.3578 28.6467 28.5706 28.5428 28.7095 28.365C28.8483 28.1872 28.8975 27.9554 28.8427 27.7366L28.187 25.1138C28.4096 24.7633 28.6204 24.4064 28.8191 24.0434L34.0349 26.9865C34.1467 27.0495 34.2707 27.081 34.3949 27.081C34.5225 27.081 34.6501 27.0476 34.7642 26.9811C34.989 26.8498 35.1273 26.609 35.1273 26.3486V24.0675C35.1273 23.3482 34.8737 22.6477 34.4132 22.0952L30.9363 17.9242C31.1194 16.8362 31.2131 15.7269 31.2131 14.6062C31.2131 11.9352 30.696 9.35336 29.6762 6.93252C28.6926 4.59775 27.2925 2.52646 25.5148 0.776169C25.2297 0.495509 24.7722 0.495509 24.4871 0.776169C22.7094 2.52637 21.3093 4.59765 20.3257 6.93252C19.3059 9.35346 18.7888 11.9352 18.7888 14.6062C18.7888 15.7251 18.8823 16.8328 19.0648 17.9191L15.5885 22.0952ZM16.3393 25.0943V24.0675C16.3393 23.6902 16.4723 23.3228 16.7138 23.0329L19.4591 19.7386C19.7334 20.7648 20.09 21.7656 20.5271 22.7314L16.3393 25.0943ZM22.8076 27.1818L23.2242 25.5154H26.7774L27.194 27.1818H22.8076ZM33.2876 23.0329C33.5291 23.3228 33.6621 23.6902 33.6621 24.0675V25.0943L29.4744 22.7313C29.9114 21.7655 30.268 20.7648 30.5423 19.7385L33.2876 23.0329ZM25.0007 2.34863C26.2307 3.6708 27.2452 5.18682 28.0162 6.82832H21.9853C22.7563 5.18682 23.7707 3.6708 25.0007 2.34863ZM21.3749 8.29307H28.6264C29.3587 10.2897 29.748 12.4302 29.748 14.6061C29.748 17.9741 28.8419 21.2304 27.1238 24.0504H22.8776C21.1594 21.2304 20.2534 17.9741 20.2534 14.6061C20.2534 12.4302 20.6427 10.2898 21.3749 8.29307Z" fill="#D79D4B"/>
<path d="M28.0817 13.8233C28.0817 12.1244 26.6996 10.7424 25.0008 10.7424C23.302 10.7424 21.9199 12.1245 21.9199 13.8233C21.9199 15.522 23.302 16.9041 25.0008 16.9041C26.6996 16.9041 28.0817 15.5221 28.0817 13.8233ZM23.3848 13.8233C23.3848 12.9321 24.1097 12.2072 25.0008 12.2072C25.8919 12.2072 26.6168 12.9322 26.6168 13.8233C26.6168 14.7143 25.8919 15.4393 25.0008 15.4393C24.1097 15.4393 23.3848 14.7144 23.3848 13.8233Z" fill="white"/>
</svg>
