<svg width="45" height="40" viewBox="0 0 45 40" fill="none" xmlns="http://www.w3.org/2000/svg">
<path d="M27.4578 28.8552C27.6258 28.8552 27.7949 28.7975 27.933 28.6799L32.6832 24.6351C32.847 24.4954 32.9412 24.2914 32.9412 24.076C32.9412 23.8609 32.8466 23.6569 32.6832 23.5172L27.933 19.4724C27.6245 19.2095 27.1612 19.2467 26.8982 19.5552C26.6357 19.8641 26.6725 20.3274 26.9814 20.5899L31.0749 24.076L26.9814 27.562C26.6725 27.825 26.6357 28.2883 26.8982 28.5967C27.0437 28.7676 27.2501 28.8552 27.4578 28.8552Z" fill="#D79D4B"/>
<path d="M18.0807 28.8552C18.2883 28.8552 18.4948 28.7676 18.6398 28.5967C18.9028 28.2883 18.8655 27.825 18.5571 27.562L14.4636 24.076L18.5571 20.5899C18.8655 20.3274 18.9028 19.8641 18.6398 19.5552C18.3772 19.2467 17.9135 19.2095 17.6055 19.4724L12.8553 23.5172C12.6915 23.6569 12.5972 23.8609 12.5972 24.076C12.5972 24.2914 12.6915 24.4954 12.8553 24.6351L17.6055 28.6799C17.7435 28.7975 17.9127 28.8552 18.0807 28.8552Z" fill="#D79D4B"/>
<path d="M24.4505 31.8889C24.5009 31.8889 24.5517 31.8836 24.6029 31.873C24.9995 31.7894 25.2534 31.3998 25.1699 31.0033L22.2094 16.9474C22.1258 16.5508 21.7367 16.2969 21.3397 16.3804C20.9432 16.464 20.6892 16.8532 20.7728 17.2501L23.7333 31.306C23.8062 31.6517 24.1109 31.8889 24.4505 31.8889Z" fill="#D79D4B"/>
<path d="M5.46588 39.5468H40.0721C42.7896 39.5468 45.0008 37.336 45.0008 34.6181V5.24615C45.0008 2.52861 42.7896 0.317383 40.0721 0.317383H5.46588C2.74834 0.317383 0.537109 2.52861 0.537109 5.24615V34.6181C0.537109 37.336 2.74834 39.5468 5.46588 39.5468ZM40.0721 1.78553C41.9802 1.78553 43.5327 3.33806 43.5327 5.24615V34.6181C43.5327 36.5262 41.9802 38.0787 40.0721 38.0787H5.46588C3.55779 38.0787 2.00526 36.5262 2.00526 34.6181V5.24615C2.00526 3.33806 3.55779 1.78553 5.46588 1.78553H40.0721Z" fill="white"/>
<path d="M1.27119 12.0719H44.2668C44.6723 12.0719 45.0008 11.7434 45.0008 11.3379C45.0008 10.9327 44.6723 10.6038 44.2668 10.6038H1.27119C0.865639 10.6038 0.537109 10.9327 0.537109 11.3379C0.537109 11.7434 0.865639 12.0719 1.27119 12.0719Z" fill="white"/>
<path d="M32.4587 8.55946C33.7393 8.55946 34.7818 7.51696 34.7818 6.23639C34.7818 4.95545 33.7393 3.91333 32.4587 3.91333C31.1778 3.91333 30.1357 4.95545 30.1357 6.23639C30.1357 7.51696 31.1778 8.55946 32.4587 8.55946ZM32.4587 5.38147C32.9298 5.38147 33.3137 5.76489 33.3137 6.23639C33.3137 6.70788 32.9298 7.09126 32.4587 7.09126C31.9872 7.09126 31.6038 6.70788 31.6038 6.23639C31.6038 5.76489 31.9872 5.38147 32.4587 5.38147Z" fill="white"/>
<path d="M39.596 8.53677C40.8769 8.53677 41.919 7.49458 41.919 6.21369C41.919 4.93274 40.8769 3.89062 39.596 3.89062C38.315 3.89062 37.2729 4.93274 37.2729 6.21369C37.2729 7.49458 38.315 8.53677 39.596 8.53677ZM39.596 5.35876C40.067 5.35876 40.4509 5.7426 40.4509 6.21369C40.4509 6.68518 40.067 7.06857 39.596 7.06857C39.1245 7.06857 38.7411 6.68518 38.7411 6.21369C38.7411 5.7426 39.1245 5.35876 39.596 5.35876Z" fill="white"/>
<path d="M25.3211 8.58147C26.6016 8.58147 27.6438 7.53937 27.6438 6.25844C27.6438 4.97791 26.6016 3.93579 25.3211 3.93579C24.0402 3.93579 22.998 4.97791 22.998 6.25844C22.998 7.53937 24.0402 8.58147 25.3211 8.58147ZM25.3211 5.40352C25.7922 5.40352 26.1756 5.78695 26.1756 6.25844C26.1756 6.72993 25.7922 7.11337 25.3211 7.11337C24.8496 7.11337 24.4662 6.72993 24.4662 6.25844C24.4662 5.78695 24.8496 5.40352 25.3211 5.40352Z" fill="white"/>
</svg>
