<svg width="38" height="38" viewBox="0 0 39 33" fill="none" xmlns="http://www.w3.org/2000/svg">
<path d="M19.4407 16.1999C21.9943 14.7383 23.7391 12.0168 23.7391 8.8696C23.7391 4.19473 19.9358 0.391357 15.2609 0.391357C10.5859 0.391357 6.78258 4.19473 6.78258 8.8696C6.78258 12.0168 8.5274 14.7383 11.0811 16.1999C4.69359 17.877 0 23.2776 0 29.6787V31.7609C0 32.2289 0.379852 32.6088 0.847852 32.6088C1.31585 32.6088 1.6957 32.2289 1.6957 31.7609V29.6787C1.69562 22.8809 7.78137 17.3479 15.2609 17.3479C22.7403 17.3479 28.8261 22.8809 28.8261 29.6787V31.7609C28.8261 32.2289 29.2059 32.6088 29.6739 32.6088C30.1419 32.6088 30.5218 32.2289 30.5218 31.7609V29.6787C30.5217 23.2776 25.8281 17.8753 19.4407 16.1999ZM8.47828 8.8696C8.47828 5.12906 11.5203 2.08706 15.2609 2.08706C19.0014 2.08706 22.0434 5.12906 22.0434 8.8696C22.0434 12.6102 19.0014 15.6522 15.2609 15.6522C11.5203 15.6522 8.47828 12.6103 8.47828 8.8696Z" fill="white"/>
<path d="M30.8576 16.222C32.6956 15.0062 33.9131 12.9273 33.9131 10.5653C33.9131 6.82471 30.8711 3.78271 27.1306 3.78271C26.6626 3.78271 26.2827 4.16257 26.2827 4.63057C26.2827 5.09857 26.6626 5.47843 27.1306 5.47843C29.9351 5.47843 32.2175 7.7608 32.2175 10.5654C32.2175 13.37 29.9351 15.6523 27.1306 15.6523C26.6626 15.6523 26.2827 16.0322 26.2827 16.5002C26.2827 16.9682 26.6625 17.3479 27.1305 17.3479C32.7414 17.3479 37.3044 21.565 37.3044 26.7502V28.3695C37.3044 28.8375 37.6842 29.2174 38.1522 29.2174C38.6202 29.2174 39.0001 28.8375 39.0001 28.3695V26.7502C39.0001 21.8498 35.5817 17.687 30.8576 16.222Z" fill="#D79D4B"/>
</svg>
