<svg width="37" height="37" viewBox="0 0 37 37" fill="none" xmlns="http://www.w3.org/2000/svg">
<path d="M13.8753 15.4167C9.62495 15.4167 6.16699 11.9587 6.16699 7.70833C6.16699 3.45796 9.62495 0 13.8753 0C18.1257 0 21.5837 3.45796 21.5837 7.70833C21.5837 11.9587 18.1257 15.4167 13.8753 15.4167ZM13.8753 1.54167C10.4744 1.54167 7.70866 4.30742 7.70866 7.70833C7.70866 11.1093 10.4744 13.875 13.8753 13.875C17.2762 13.875 20.042 11.1093 20.042 7.70833C20.042 4.30742 17.2762 1.54167 13.8753 1.54167Z" fill="white"/>
<path d="M14.6458 32.375H0.770833C0.345333 32.375 0 32.0297 0 31.6042V25.4375C0 21.6126 3.11263 18.5 6.9375 18.5H20.8125C21.238 18.5 21.5833 18.8453 21.5833 19.2708C21.5833 19.6963 21.238 20.0417 20.8125 20.0417H6.9375C3.96208 20.0417 1.54167 22.4621 1.54167 25.4375V30.8333H14.6458C15.0713 30.8333 15.4167 31.1787 15.4167 31.6042C15.4167 32.0297 15.0713 32.375 14.6458 32.375Z" fill="white"/>
<path d="M26.2083 37C24.0022 37 21.7976 36.3463 19.6069 35.0405C18.9224 34.6335 18.5 33.8735 18.5 33.058V28.5208C18.5 28.0953 18.8453 27.75 19.2708 27.75C19.6963 27.75 20.0417 28.0953 20.0417 28.5208V33.058C20.0417 33.3293 20.1804 33.5883 20.3947 33.7163C24.3075 36.0488 28.1108 36.0488 32.0204 33.7163C32.2363 33.5883 32.375 33.3293 32.375 33.058V28.5208C32.375 28.0953 32.7203 27.75 33.1458 27.75C33.5713 27.75 33.9167 28.0953 33.9167 28.5208V33.058C33.9167 33.8735 33.4943 34.6335 32.8098 35.0405C30.619 36.3463 28.4145 37 26.2083 37Z" fill="#D79D4B"/>
<path d="M26.2087 32.375C26.0992 32.375 25.9882 32.3518 25.8849 32.304L15.8641 27.679C15.5912 27.5526 15.417 27.2797 15.417 26.9791C15.417 26.6785 15.5912 26.4056 15.8641 26.2792L25.8849 21.6542C26.093 21.5586 26.3243 21.5586 26.5324 21.6542L36.5532 26.2792C36.8261 26.4056 37.0003 26.6785 37.0003 26.9791C37.0003 27.2797 36.8261 27.5526 36.5532 27.679L26.5324 32.304C26.4291 32.3518 26.3181 32.375 26.2087 32.375ZM18.027 26.9791L26.2087 30.7547L34.3903 26.9791L26.2087 23.2036L18.027 26.9791Z" fill="#D79D4B"/>
</svg>
