<svg width="49" height="48" viewBox="0 0 49 48" fill="none" xmlns="http://www.w3.org/2000/svg">
<path d="M27.9043 36.9731H29.2016V40.865H27.9043V36.9731Z" fill="#292929"/>
<path d="M43.4727 37.6218H4.55379C3.69363 37.6218 2.8687 37.2801 2.26047 36.6719C1.65225 36.0637 1.31055 35.2387 1.31055 34.3786V7.13533C1.31055 6.27517 1.65225 5.45024 2.26047 4.84201C2.8687 4.23378 3.69363 3.89209 4.55379 3.89209H43.4727C44.3329 3.89209 45.1578 4.23378 45.766 4.84201C46.3743 5.45024 46.716 6.27517 46.716 7.13533V34.3786C46.716 35.2387 46.3743 36.0637 45.766 36.6719C45.1578 37.2801 44.3329 37.6218 43.4727 37.6218ZM4.55379 5.18938C4.03769 5.18938 3.54274 5.3944 3.1778 5.75934C2.81286 6.12427 2.60785 6.61923 2.60785 7.13533V34.3786C2.60785 34.8947 2.81286 35.3896 3.1778 35.7546C3.54274 36.1195 4.03769 36.3245 4.55379 36.3245H43.4727C43.9888 36.3245 44.4838 36.1195 44.8487 35.7546C45.2136 35.3896 45.4187 34.8947 45.4187 34.3786V7.13533C45.4187 6.61923 45.2136 6.12427 44.8487 5.75934C44.4838 5.3944 43.9888 5.18938 43.4727 5.18938H4.55379Z" fill="#292929"/>
<path d="M32.4451 44.1082H15.5802C15.4082 44.1082 15.2432 44.0398 15.1215 43.9182C14.9999 43.7965 14.9316 43.6316 14.9316 43.4595C14.9316 40.2163 18.3499 40.2163 19.4721 40.2163H28.5532C29.6753 40.2163 33.0937 40.2163 33.0937 43.4595C33.0937 43.6316 33.0254 43.7965 32.9037 43.9182C32.7821 44.0398 32.6171 44.1082 32.4451 44.1082ZM16.3067 42.8109H31.7186C31.4916 42.013 30.7067 41.5136 28.5532 41.5136H19.4721C17.3186 41.5136 16.5337 42.013 16.3067 42.8109Z" fill="#292929"/>
<path d="M18.8232 36.9731H20.1205V40.865H18.8232V36.9731Z" fill="#292929"/>
<path d="M1.95898 31.1353H46.067V32.4326H1.95898V31.1353Z" fill="#292929"/>
<path d="M22.0664 33.73H25.9583V35.0273H22.0664V33.73Z" fill="#292929"/>
<path d="M27.2559 22.7025C27.1494 22.702 27.0447 22.6753 26.951 22.6247L18.5186 18.0842C18.415 18.029 18.3283 17.9468 18.2678 17.8463C18.2072 17.7458 18.1751 17.6307 18.1748 17.5134V12.3242C18.1751 12.2068 18.2072 12.0918 18.2678 11.9912C18.3283 11.8907 18.415 11.8085 18.5186 11.7534L26.951 7.21282C27.0497 7.16026 27.1603 7.13411 27.2721 7.13692C27.3839 7.13972 27.4931 7.17138 27.589 7.22882C27.685 7.28626 27.7644 7.36753 27.8197 7.46474C27.875 7.56195 27.9042 7.6718 27.9045 7.78363V22.0539C27.9045 22.1665 27.8752 22.2771 27.8194 22.3749C27.7637 22.4727 27.6835 22.5543 27.5867 22.6117C27.4865 22.6711 27.3723 22.7025 27.2559 22.7025ZM19.4721 17.1242L26.6072 20.9707V8.86688L19.4721 12.7134V17.1242Z" fill="#D79D4B"/>
<path d="M18.8238 18.1622H14.2832C13.4231 18.1622 12.5981 17.8206 11.9899 17.2123C11.3817 16.6041 11.04 15.7792 11.04 14.919C11.04 14.0588 11.3817 13.2339 11.9899 12.6257C12.5981 12.0175 13.4231 11.6758 14.2832 11.6758H18.8238V12.9731H14.2832C13.7671 12.9731 13.2722 13.1781 12.9072 13.543C12.5423 13.9079 12.3373 14.4029 12.3373 14.919C12.3373 15.4351 12.5423 15.9301 12.9072 16.295C13.2722 16.6599 13.7671 16.865 14.2832 16.865H18.8238V18.1622Z" fill="#D79D4B"/>
<path d="M18.1753 29.189H14.2834C14.1114 29.189 13.9464 29.1206 13.8248 28.999C13.7031 28.8774 13.6348 28.7124 13.6348 28.5403V17.5133C13.6348 17.3413 13.7031 17.1763 13.8248 17.0547C13.9464 16.933 14.1114 16.8647 14.2834 16.8647H18.1753C18.3474 16.8647 18.5124 16.933 18.634 17.0547C18.7557 17.1763 18.824 17.3413 18.824 17.5133V28.5403C18.824 28.7124 18.7557 28.8774 18.634 28.999C18.5124 29.1206 18.3474 29.189 18.1753 29.189ZM14.9321 27.8917H17.5267V18.162H14.9321V27.8917Z" fill="#D79D4B"/>
<path d="M28.5533 18.1622H27.256C27.084 18.1622 26.919 18.0939 26.7974 17.9723C26.6757 17.8506 26.6074 17.6856 26.6074 17.5136V12.3244C26.6074 12.1524 26.6757 11.9874 26.7974 11.8657C26.919 11.7441 27.084 11.6758 27.256 11.6758H28.5533C29.4135 11.6758 30.2384 12.0175 30.8467 12.6257C31.4549 13.2339 31.7966 14.0588 31.7966 14.919C31.7966 15.7792 31.4549 16.6041 30.8467 17.2123C30.2384 17.8206 29.4135 18.1622 28.5533 18.1622ZM27.9047 16.865H28.5533C29.0694 16.865 29.5644 16.6599 29.9293 16.295C30.2943 15.9301 30.4993 15.4351 30.4993 14.919C30.4993 14.4029 30.2943 13.9079 29.9293 13.543C29.5644 13.1781 29.0694 12.9731 28.5533 12.9731H27.9047V16.865Z" fill="#D79D4B"/>
<path d="M32.6309 11.2182L35.2269 8.62207L36.1442 9.5394L33.5482 12.1355L32.6309 11.2182Z" fill="#D79D4B"/>
<path d="M32.6289 18.6195L33.5462 17.7021L36.1423 20.2982L35.225 21.2155L32.6289 18.6195Z" fill="#D79D4B"/>
<path d="M33.0938 14.27H36.337V15.5673H33.0938V14.27Z" fill="#D79D4B"/>
</svg>
