<svg width="35" height="35" viewBox="0 0 35 35" fill="none" xmlns="http://www.w3.org/2000/svg">
<g clip-path="url(#clip0)">
<path d="M17.5008 0C7.85139 0 0.000976562 7.85025 0.000976562 17.4995C0.000976562 27.1494 7.85139 35 17.5008 35C27.1501 35 35.0003 27.1493 35.0003 17.4995C35.0003 7.85025 27.1501 0 17.5008 0ZM17.5008 32.4914C9.23464 32.4914 2.50958 25.766 2.50958 17.4995C2.50958 9.23349 9.23464 2.5086 17.5008 2.5086C25.7668 2.5086 32.4917 9.23349 32.4917 17.4995C32.4917 25.766 25.7668 32.4914 17.5008 32.4914Z" fill="#292929"/>
<path d="M26.4981 17.2067H18.2742V8.21719C18.2742 7.52448 17.7128 6.96289 17.0199 6.96289C16.3272 6.96289 15.7656 7.52448 15.7656 8.21719V18.461C15.7656 19.1537 16.3272 19.7153 17.0199 19.7153H26.4981C27.1909 19.7153 27.7524 19.1537 27.7524 18.461C27.7524 17.7683 27.1908 17.2067 26.4981 17.2067Z" fill="#D79D4B"/>
</g>
<defs>
<clipPath id="clip0">
<rect width="35" height="35" fill="white"/>
</clipPath>
</defs>
</svg>
