<svg width="22" height="22" viewBox="0 0 22 22" fill="none" xmlns="http://www.w3.org/2000/svg">
<path d="M19.6087 0.478027H2.39129C1.07322 0.478027 0 1.55125 0 2.86932V13.3911C0 14.7092 1.07322 15.7824 2.39129 15.7824H4.30435C4.56835 15.7824 4.78262 15.5681 4.78262 15.3041C4.78262 15.0401 4.56835 14.8258 4.30435 14.8258H2.39129C1.60023 14.8258 0.956506 14.1821 0.956506 13.3911V2.86932C0.956506 2.07826 1.60023 1.43454 2.39129 1.43454H19.6087C20.3997 1.43454 21.0435 2.07826 21.0435 2.86932V13.3911C21.0435 14.1822 20.3997 14.8259 19.6087 14.8259H17.6956C17.4316 14.8259 17.2173 15.0402 17.2173 15.3042C17.2173 15.5682 17.4316 15.7824 17.6956 15.7824H19.6087C20.9267 15.7824 22 14.7092 22 13.3912V2.86932C22 1.55125 20.9268 0.478027 19.6087 0.478027Z" fill="#292929"/>
<path d="M19.9972 2.58913C19.8422 2.37485 19.5438 2.32607 19.3295 2.48201L11.8973 7.84904C11.3531 8.24217 10.6481 8.24217 10.1039 7.84904L2.6717 2.48201C2.45648 2.32611 2.15804 2.3749 2.00403 2.58913C1.84907 2.8034 1.89691 3.10278 2.11114 3.25679L9.54331 8.62382C9.97855 8.93853 10.4893 9.09636 11.0001 9.09636C11.5109 9.09636 12.0217 8.93947 12.4578 8.62382L19.89 3.25679C20.1034 3.10278 20.1521 2.8034 19.9972 2.58913Z" fill="#292929"/>
<path d="M7.51187 8.27075C7.32535 8.08423 7.02212 8.08423 6.8356 8.27075L2.05298 13.0534C1.86645 13.2399 1.86645 13.5432 2.05298 13.7297C2.14673 13.8225 2.26913 13.8694 2.39158 13.8694C2.51403 13.8694 2.63644 13.8225 2.72925 13.7297L7.51187 8.94703C7.6984 8.76051 7.6984 8.45728 7.51187 8.27075Z" fill="#292929"/>
<path d="M19.9464 13.0534L15.1638 8.27075C14.9773 8.08423 14.6741 8.08423 14.4875 8.27075C14.301 8.45728 14.301 8.76051 14.4875 8.94703L19.2702 13.7297C19.3639 13.8225 19.4863 13.8694 19.6088 13.8694C19.7312 13.8694 19.8536 13.8225 19.9464 13.7297C20.133 13.5432 20.133 13.2399 19.9464 13.0534Z" fill="#292929"/>
<path d="M11.0001 11C8.09898 11 5.73926 13.3598 5.73926 16.2609C5.73926 19.162 8.09898 21.5217 11.0001 21.5217C12.3737 21.5217 13.6726 20.9966 14.6579 20.042C14.8482 19.8583 14.853 19.5551 14.6693 19.3657C14.4857 19.1754 14.1834 19.1725 13.9931 19.3542C13.1867 20.1357 12.1231 20.5652 11.0001 20.5652C8.62698 20.5652 6.69576 18.634 6.69576 16.2608C6.69576 13.8877 8.62698 11.9565 11.0001 11.9565C13.3732 11.9565 15.3045 13.8877 15.3045 16.2608C15.3045 16.5248 15.5187 16.7391 15.7827 16.7391C16.0467 16.7391 16.261 16.5248 16.261 16.2608C16.261 13.3598 13.9012 11 11.0001 11Z" fill="#D79D4B"/>
<path d="M11.0007 13.8696C9.68259 13.8696 8.60938 14.9428 8.60938 16.2609C8.60938 17.579 9.68259 18.6522 11.0007 18.6522C12.3187 18.6522 13.392 17.579 13.392 16.261C13.392 14.9429 12.3188 13.8696 11.0007 13.8696ZM11.0007 17.6957C10.2096 17.6957 9.56588 17.052 9.56588 16.261C9.56588 15.4699 10.2096 14.8262 11.0007 14.8262C11.7917 14.8262 12.4355 15.4699 12.4355 16.261C12.4355 17.052 11.7917 17.6957 11.0007 17.6957Z" fill="#D79D4B"/>
<path d="M15.7825 15.7827C15.5185 15.7827 15.3042 15.997 15.3042 16.261C15.3042 17.3342 15.0632 17.6958 14.3477 17.6958C13.7126 17.6958 13.3912 17.2127 13.3912 16.261C13.3912 15.997 13.1769 15.7827 12.9129 15.7827C12.6489 15.7827 12.4346 15.997 12.4346 16.261C12.4346 17.7579 13.1501 18.6523 14.3477 18.6523C16.2607 18.6523 16.2607 16.8521 16.2607 16.261C16.2607 15.997 16.0465 15.7827 15.7825 15.7827Z" fill="#D79D4B"/>
</svg>
