<svg width="31" height="35" viewBox="0 0 31 35" fill="none" xmlns="http://www.w3.org/2000/svg">
<path d="M20.6035 1.45833H10.3952C9.99272 1.45833 9.66602 1.13167 9.66602 0.729167C9.66602 0.326667 9.99272 0 10.3952 0H20.6035C21.006 0 21.3327 0.326667 21.3327 0.729167C21.3327 1.13167 21.006 1.45833 20.6035 1.45833Z" fill="#292929"/>
<path d="M18.7813 5.83333H16.2292C15.8267 5.83333 15.5 5.50667 15.5 5.10417C15.5 4.70167 15.8267 4.375 16.2292 4.375H18.7813C19.1838 4.375 19.5104 4.70167 19.5104 5.10417C19.5104 5.50667 19.1838 5.83333 18.7813 5.83333Z" fill="#292929"/>
<path d="M18.7813 10.2083H16.2292C15.8267 10.2083 15.5 9.88167 15.5 9.47917C15.5 9.07667 15.8267 8.75 16.2292 8.75H18.7813C19.1838 8.75 19.5104 9.07667 19.5104 9.47917C19.5104 9.88167 19.1838 10.2083 18.7813 10.2083Z" fill="#292929"/>
<path d="M24.2503 35H6.75033C3.53324 35 0.916992 32.3838 0.916992 29.1667C0.916992 28.0044 1.25824 26.8829 1.90283 25.9204L10.2591 13.4633C10.8264 12.619 11.1253 11.636 11.1253 10.6196V0.729167C11.1253 0.326667 11.452 0 11.8545 0C12.257 0 12.5837 0.326667 12.5837 0.729167V10.6196C12.5837 11.9263 12.1987 13.1906 11.471 14.2756L3.11324 26.7327C2.63054 27.4531 2.37533 28.2946 2.37533 29.1667C2.37533 31.5788 4.33824 33.5417 6.75033 33.5417H24.2503C26.6624 33.5417 28.6253 31.5788 28.6253 29.1667C28.6253 28.2946 28.3701 27.4531 27.8874 26.7327L19.5312 14.2756C18.802 13.1906 18.417 11.9263 18.417 10.6196V0.729167C18.417 0.326667 18.7437 0 19.1462 0C19.5487 0 19.8753 0.326667 19.8753 0.729167V10.6196C19.8753 11.6346 20.1743 12.619 20.7416 13.4633L29.0978 25.9204C29.7424 26.8829 30.0837 28.0044 30.0837 29.1667C30.0837 32.3838 27.4674 35 24.2503 35Z" fill="#292929"/>
<path d="M24.2493 30.6251H6.74936C5.94582 30.6251 5.29102 29.9717 5.29102 29.1667C5.29102 28.8721 5.37852 28.5878 5.54332 28.3457C5.55936 28.3224 5.5754 28.3019 5.59436 28.2801L10.7262 20.7215C10.8516 20.5348 11.0587 20.4167 11.2848 20.4036C11.6916 20.3788 12.0737 20.2738 12.3902 20.0988L13.5218 19.4601C14.7264 18.7951 16.2723 18.7951 17.4695 19.4571L18.6129 20.1003C18.9235 20.2723 19.3071 20.3773 19.7125 20.4021C19.9385 20.4153 20.1441 20.5334 20.271 20.7201L25.4014 28.2786C25.4189 28.299 25.4364 28.3209 25.4525 28.3442C25.6202 28.5878 25.7077 28.8721 25.7077 29.1667C25.7077 29.9717 25.0529 30.6251 24.2493 30.6251ZM11.7412 21.8211L6.75373 29.1682L24.2435 29.1667L19.2575 21.8211C18.7704 21.7511 18.3081 21.5994 17.9041 21.3748L16.7608 20.7317C16.0083 20.3176 14.9918 20.3161 14.235 20.7346L13.1033 21.3734C12.692 21.5994 12.2283 21.7511 11.7412 21.8211Z" fill="#D79D4B"/>
</svg>
