<svg width="23" height="23" viewBox="0 0 23 23" fill="none" xmlns="http://www.w3.org/2000/svg">
<g clip-path="url(#clip0)">
<path d="M18.1771 14.2474C17.7062 13.7571 17.1383 13.495 16.5363 13.495C15.9393 13.495 15.3665 13.7523 14.8762 14.2426L13.3422 15.7717C13.216 15.7037 13.0898 15.6406 12.9684 15.5775C12.7937 15.4901 12.6286 15.4076 12.4879 15.3202C11.051 14.4076 9.74518 13.2183 8.49277 11.6795C7.88598 10.9125 7.47822 10.2669 7.18211 9.61152C7.58016 9.24745 7.94909 8.86881 8.30831 8.50474C8.44423 8.36882 8.58015 8.22805 8.71607 8.09213C9.73547 7.07272 9.73547 5.75235 8.71607 4.73295L7.39084 3.40772C7.24036 3.25724 7.08502 3.1019 6.93939 2.94657C6.64813 2.6456 6.34231 2.33492 6.02678 2.04366C5.55592 1.57765 4.99282 1.33008 4.40059 1.33008C3.80837 1.33008 3.23556 1.57765 2.75013 2.04366C2.74528 2.04852 2.74528 2.04852 2.74042 2.05337L1.08996 3.7184C0.468609 4.33975 0.114245 5.09702 0.0365763 5.97565C-0.079927 7.39311 0.337543 8.71348 0.657927 9.57754C1.44432 11.6989 2.61906 13.6649 4.37147 15.7717C6.49765 18.3105 9.05587 20.3153 11.9781 21.7279C13.0946 22.257 14.5849 22.8832 16.2499 22.99C16.3519 22.9949 16.4587 22.9997 16.5558 22.9997C17.6771 22.9997 18.6188 22.5968 19.3567 21.7959C19.3615 21.7862 19.3713 21.7813 19.3761 21.7716C19.6285 21.4658 19.9198 21.1891 20.2256 20.893C20.4343 20.6939 20.6479 20.4852 20.8567 20.2668C21.3372 19.7668 21.5897 19.1842 21.5897 18.5872C21.5897 17.9852 21.3324 17.4076 20.8421 16.9221L18.1771 14.2474ZM19.9149 19.359C19.9101 19.359 19.9101 19.3639 19.9149 19.359C19.7256 19.5629 19.5314 19.7473 19.3227 19.9512C19.0072 20.2522 18.6868 20.5677 18.3858 20.9221C17.8955 21.4464 17.3179 21.6939 16.5606 21.6939C16.4878 21.6939 16.4101 21.6939 16.3373 21.6891C14.8956 21.5968 13.5558 21.0337 12.551 20.5532C9.80343 19.2231 7.39084 17.3348 5.38602 14.9416C3.7307 12.9465 2.62392 11.1018 1.89092 9.12124C1.43947 7.91252 1.27442 6.97078 1.34724 6.08244C1.39578 5.51449 1.61422 5.04362 2.01713 4.64072L3.67245 2.9854C3.91031 2.7621 4.16273 2.64074 4.4103 2.64074C4.71612 2.64074 4.96369 2.82521 5.11903 2.98055C5.12388 2.9854 5.12874 2.99025 5.13359 2.99511C5.4297 3.2718 5.71125 3.55821 6.00737 3.86403C6.15785 4.01937 6.31319 4.1747 6.46853 4.3349L7.79375 5.66012C8.30831 6.17468 8.30831 6.6504 7.79375 7.16495C7.65298 7.30573 7.51705 7.4465 7.37628 7.58242C6.96852 7.99989 6.58017 8.38824 6.15785 8.76687C6.14814 8.77658 6.13843 8.78144 6.13358 8.79115C5.71611 9.20862 5.79378 9.61638 5.88115 9.89307C5.88601 9.90763 5.89086 9.9222 5.89572 9.93676C6.24037 10.7717 6.7258 11.5581 7.46366 12.495L7.46851 12.4999C8.8083 14.1503 10.2209 15.4367 11.7791 16.4221C11.9781 16.5484 12.182 16.6503 12.3762 16.7474C12.551 16.8348 12.716 16.9173 12.8568 17.0047C12.8762 17.0144 12.8956 17.0289 12.915 17.0386C13.0801 17.1212 13.2354 17.16 13.3956 17.16C13.7985 17.16 14.0509 16.9076 14.1335 16.8251L15.7936 15.1649C15.9587 14.9998 16.2208 14.8008 16.5266 14.8008C16.8276 14.8008 17.0752 14.9901 17.2256 15.1552C17.2305 15.16 17.2305 15.16 17.2354 15.1649L19.9101 17.8396C20.4101 18.3347 20.4101 18.8444 19.9149 19.359Z" fill="#292929"/>
<path d="M12.43 5.4714C13.7018 5.68499 14.8571 6.28692 15.7795 7.20924C16.7018 8.13156 17.2988 9.28688 17.5173 10.5587C17.5707 10.8791 17.8474 11.1023 18.1629 11.1023C18.2018 11.1023 18.2357 11.0975 18.2746 11.0926C18.6338 11.0344 18.8716 10.6946 18.8134 10.3354C18.5513 8.7966 17.8231 7.3937 16.7115 6.28207C15.5998 5.17043 14.197 4.44229 12.6581 4.18016C12.2989 4.1219 11.964 4.35977 11.9009 4.71413C11.8378 5.06849 12.0708 5.41315 12.43 5.4714Z" fill="#D79D4B"/>
<path d="M22.9741 10.1458C22.542 7.61183 21.3479 5.30604 19.5129 3.47111C17.678 1.63618 15.3722 0.442024 12.8383 0.00999088C12.4839 -0.0531151 12.149 0.1896 12.0859 0.543964C12.0276 0.903183 12.2655 1.23813 12.6247 1.30124C14.8868 1.68473 16.9499 2.75753 18.5906 4.39343C20.2314 6.03418 21.2993 8.09726 21.6828 10.3594C21.7362 10.6797 22.0129 10.903 22.3284 10.903C22.3673 10.903 22.4012 10.8982 22.4401 10.8933C22.7944 10.8399 23.0372 10.5001 22.9741 10.1458Z" fill="#D79D4B"/>
</g>
<defs>
<clipPath id="clip0">
<rect width="23" height="23" fill="white"/>
</clipPath>
</defs>
</svg>
