<svg width="50" height="48" viewBox="0 0 50 48" fill="none" xmlns="http://www.w3.org/2000/svg">
<g clip-path="url(#clip0)">
<path d="M49.2686 42.8386H46.0868V16.1722C46.0868 14.4733 44.7048 13.0913 43.006 13.0913H33.6124C33.2079 13.0913 32.88 13.4192 32.88 13.8237C32.88 14.2282 33.2079 14.5562 33.6124 14.5562H43.006C43.8971 14.5562 44.622 15.2812 44.622 16.1722V42.8387H42.1151C42.1529 42.5621 42.1727 42.2838 42.1727 42.0055C42.1727 38.5801 39.3859 35.7933 35.9605 35.7933C35.4999 35.7933 35.0401 35.8459 34.5867 35.9501C33.7965 34.4274 32.2224 33.4447 30.4808 33.4447C29.9126 33.4447 29.3608 33.5483 28.8412 33.7496C28.6279 31.8195 26.987 30.3134 25.001 30.3134C23.015 30.3134 21.3741 31.8195 21.1608 33.7496C20.6412 33.5483 20.0894 33.4447 19.5212 33.4447C17.7796 33.4447 16.2054 34.4274 15.4153 35.9501C14.9618 35.8458 14.5021 35.7933 14.0415 35.7933C10.616 35.7933 7.8293 38.5801 7.8293 42.0055C7.8293 42.2839 7.84912 42.5621 7.88692 42.8387H5.37998V16.1722C5.37998 15.2811 6.10488 14.5562 6.996 14.5562H16.3899C16.7944 14.5562 17.1223 14.2282 17.1223 13.8237C17.1223 13.4192 16.7944 13.0913 16.3899 13.0913H6.996C5.29717 13.0913 3.91514 14.4734 3.91514 16.1722V42.8387H0.733399C0.328906 42.8387 0.000976562 43.1666 0.000976562 43.5711V45.1367C0.000976562 46.4039 1.03194 47.4348 2.29903 47.4348H47.7029C48.9701 47.4348 50.001 46.4038 50.001 45.1367V43.5711C50.001 43.1665 49.6731 42.8386 49.2686 42.8386ZM48.5362 45.1367C48.5362 45.5962 48.1623 45.9699 47.7029 45.9699H2.29903C1.83955 45.9699 1.46582 45.5961 1.46582 45.1367V44.3035H10.9099C11.3144 44.3035 11.6423 43.9756 11.6423 43.5711C11.6423 43.1666 11.3144 42.8387 10.9099 42.8387H9.36905C9.31934 42.5626 9.29405 42.2839 9.29405 42.0055C9.29405 39.3878 11.4238 37.2581 14.0414 37.2581C14.5628 37.2581 15.0849 37.3474 15.5932 37.5233C15.7773 37.5871 15.979 37.5749 16.1541 37.4896C16.3291 37.4041 16.4629 37.2525 16.526 37.0683C16.9675 35.7772 18.1712 34.9097 19.5213 34.9097C20.2616 34.9097 20.9648 35.1717 21.5548 35.6675C21.8039 35.8768 22.1612 35.8967 22.432 35.7163C22.7028 35.5359 22.8221 35.1986 22.725 34.8882C22.6412 34.62 22.6022 34.3941 22.6022 34.1772C22.6022 32.8545 23.6783 31.7784 25.001 31.7784C26.3237 31.7784 27.3998 32.8546 27.3998 34.1772C27.3998 34.3941 27.3608 34.62 27.277 34.8882C27.1799 35.1987 27.2993 35.536 27.57 35.7163C27.8408 35.8966 28.1981 35.8768 28.4472 35.6675C29.0372 35.1718 29.7405 34.9097 30.4807 34.9097C31.8308 34.9097 33.0345 35.7772 33.476 37.0683C33.5391 37.2525 33.6729 37.4041 33.8479 37.4896C34.023 37.575 34.2248 37.5872 34.4088 37.5233C34.9171 37.3474 35.4391 37.2581 35.9606 37.2581C38.5783 37.2581 40.7079 39.3878 40.7079 42.0055C40.7079 42.2839 40.6825 42.5626 40.6329 42.8387H14.0417C13.6372 42.8387 13.3093 43.1666 13.3093 43.5711C13.3093 43.9756 13.6372 44.3035 14.0417 44.3035H48.5362V45.1367Z" fill="#292929"/>
<path d="M15.588 22.0954C15.1276 22.6479 14.874 23.3484 14.874 24.0677V26.3488C14.874 26.6091 15.0122 26.8499 15.237 26.9813C15.3511 27.0479 15.4787 27.0812 15.6064 27.0812C15.7305 27.0812 15.8546 27.0497 15.9663 26.9867L21.1822 24.0436C21.3809 24.4065 21.5916 24.7635 21.8142 25.114L21.1585 27.7368C21.1037 27.9556 21.153 28.1873 21.2917 28.3652C21.4305 28.543 21.6435 28.6469 21.8691 28.6469H28.1317C28.3573 28.6469 28.5701 28.543 28.709 28.3652C28.8478 28.1874 28.897 27.9556 28.8422 27.7368L28.1865 25.114C28.4091 24.7635 28.6199 24.4066 28.8186 24.0436L34.0344 26.9867C34.1462 27.0497 34.2702 27.0812 34.3944 27.0812C34.522 27.0812 34.6496 27.0478 34.7637 26.9813C34.9885 26.85 35.1268 26.6092 35.1268 26.3488V24.0677C35.1268 23.3484 34.8732 22.6479 34.4127 22.0954L30.9358 17.9244C31.1189 16.8364 31.2126 15.7271 31.2126 14.6064C31.2126 11.9354 30.6955 9.3536 29.6757 6.93276C28.6921 4.59799 27.292 2.5267 25.5143 0.776413C25.2292 0.495753 24.7717 0.495753 24.4866 0.776413C22.7089 2.52661 21.3088 4.59789 20.3252 6.93276C19.3054 9.3537 18.7883 11.9354 18.7883 14.6064C18.7883 15.7253 18.8818 16.833 19.0643 17.9193L15.588 22.0954ZM16.3388 25.0945V24.0677C16.3388 23.6904 16.4718 23.323 16.7133 23.0331L19.4586 19.7388C19.7329 20.765 20.0895 21.7658 20.5266 22.7316L16.3388 25.0945ZM22.8071 27.182L23.2237 25.5156H26.7769L27.1935 27.182H22.8071ZM33.2871 23.0331C33.5286 23.323 33.6616 23.6904 33.6616 24.0677V25.0945L29.4739 22.7315C29.9109 21.7657 30.2675 20.765 30.5418 19.7387L33.2871 23.0331ZM25.0002 2.34887C26.2302 3.67104 27.2447 5.18706 28.0157 6.82856H21.9848C22.7558 5.18706 23.7702 3.67104 25.0002 2.34887ZM21.3744 8.29331H28.6259C29.3582 10.2899 29.7475 12.4304 29.7475 14.6063C29.7475 17.9743 28.8414 21.2306 27.1233 24.0506H22.8771C21.1589 21.2306 20.2529 17.9743 20.2529 14.6063C20.2529 12.4304 20.6422 10.29 21.3744 8.29331Z" fill="#D79D4B"/>
<path d="M28.0817 13.8231C28.0817 12.1242 26.6996 10.7422 25.0008 10.7422C23.302 10.7422 21.9199 12.1243 21.9199 13.8231C21.9199 15.5218 23.302 16.9039 25.0008 16.9039C26.6996 16.9039 28.0817 15.5219 28.0817 13.8231ZM23.3848 13.8231C23.3848 12.9319 24.1097 12.207 25.0008 12.207C25.8919 12.207 26.6168 12.932 26.6168 13.8231C26.6168 14.7141 25.8919 15.4391 25.0008 15.4391C24.1097 15.4391 23.3848 14.7142 23.3848 13.8231Z" fill="#292929"/>
</g>
<defs>
<clipPath id="clip0">
<rect width="50" height="48" fill="white"/>
</clipPath>
</defs>
</svg>
