<svg width="45" height="40" viewBox="0 0 45 40" fill="none" xmlns="http://www.w3.org/2000/svg">
<g clip-path="url(#clip0)">
<path d="M27.4583 28.8554C27.6263 28.8554 27.7954 28.7977 27.9335 28.6801L32.6837 24.6353C32.8475 24.4956 32.9417 24.2916 32.9417 24.0762C32.9417 23.8611 32.8471 23.6571 32.6837 23.5174L27.9335 19.4726C27.625 19.2097 27.1617 19.2469 26.8987 19.5554C26.6362 19.8643 26.673 20.3276 26.9819 20.5901L31.0754 24.0762L26.9819 27.5622C26.673 27.8252 26.6362 28.2885 26.8987 28.5969C27.0442 28.7678 27.2506 28.8554 27.4583 28.8554Z" fill="#D79D4B"/>
<path d="M18.0812 28.8554C18.2888 28.8554 18.4953 28.7678 18.6403 28.5969C18.9033 28.2885 18.866 27.8252 18.5576 27.5622L14.4641 24.0762L18.5576 20.5901C18.866 20.3276 18.9033 19.8643 18.6403 19.5554C18.3777 19.2469 17.914 19.2097 17.606 19.4726L12.8558 23.5174C12.692 23.6571 12.5977 23.8611 12.5977 24.0762C12.5977 24.2916 12.692 24.4956 12.8558 24.6353L17.606 28.6801C17.744 28.7977 17.9132 28.8554 18.0812 28.8554Z" fill="#D79D4B"/>
<path d="M24.4505 31.8891C24.5009 31.8891 24.5517 31.8838 24.6029 31.8732C24.9995 31.7896 25.2534 31.4 25.1699 31.0035L22.2094 16.9476C22.1258 16.551 21.7367 16.2971 21.3397 16.3806C20.9432 16.4642 20.6892 16.8534 20.7728 17.2503L23.7333 31.3062C23.8062 31.6519 24.1109 31.8891 24.4505 31.8891Z" fill="#D79D4B"/>
<path d="M5.46588 39.5468H40.0721C42.7896 39.5468 45.0008 37.336 45.0008 34.6181V5.24615C45.0008 2.52861 42.7896 0.317383 40.0721 0.317383H5.46588C2.74834 0.317383 0.537109 2.52861 0.537109 5.24615V34.6181C0.537109 37.336 2.74834 39.5468 5.46588 39.5468ZM40.0721 1.78553C41.9802 1.78553 43.5327 3.33806 43.5327 5.24615V34.6181C43.5327 36.5262 41.9802 38.0787 40.0721 38.0787H5.46588C3.55779 38.0787 2.00526 36.5262 2.00526 34.6181V5.24615C2.00526 3.33806 3.55779 1.78553 5.46588 1.78553H40.0721Z" fill="#292929"/>
<path d="M1.27119 12.0721H44.2668C44.6723 12.0721 45.0008 11.7436 45.0008 11.3381C45.0008 10.9329 44.6723 10.604 44.2668 10.604H1.27119C0.865639 10.604 0.537109 10.9329 0.537109 11.3381C0.537109 11.7436 0.865639 12.0721 1.27119 12.0721Z" fill="#292929"/>
<path d="M32.4587 8.55922C33.7393 8.55922 34.7818 7.51672 34.7818 6.23615C34.7818 4.95521 33.7393 3.91309 32.4587 3.91309C31.1778 3.91309 30.1357 4.95521 30.1357 6.23615C30.1357 7.51672 31.1778 8.55922 32.4587 8.55922ZM32.4587 5.38123C32.9298 5.38123 33.3137 5.76465 33.3137 6.23615C33.3137 6.70764 32.9298 7.09102 32.4587 7.09102C31.9872 7.09102 31.6038 6.70764 31.6038 6.23615C31.6038 5.76465 31.9872 5.38123 32.4587 5.38123Z" fill="#292929"/>
<path d="M39.5956 8.53677C40.8765 8.53677 41.9186 7.49458 41.9186 6.21369C41.9186 4.93274 40.8765 3.89062 39.5956 3.89062C38.3146 3.89062 37.2725 4.93274 37.2725 6.21369C37.2725 7.49458 38.3146 8.53677 39.5956 8.53677ZM39.5956 5.35876C40.0666 5.35876 40.4505 5.7426 40.4505 6.21369C40.4505 6.68518 40.0666 7.06858 39.5956 7.06858C39.1241 7.06858 38.7407 6.68518 38.7407 6.21369C38.7407 5.7426 39.1241 5.35876 39.5956 5.35876Z" fill="#292929"/>
<path d="M25.3211 8.58123C26.6016 8.58123 27.6438 7.53913 27.6438 6.2582C27.6438 4.97767 26.6016 3.93555 25.3211 3.93555C24.0402 3.93555 22.998 4.97767 22.998 6.2582C22.998 7.53913 24.0402 8.58123 25.3211 8.58123ZM25.3211 5.40328C25.7922 5.40328 26.1756 5.78671 26.1756 6.2582C26.1756 6.72969 25.7922 7.11313 25.3211 7.11313C24.8496 7.11313 24.4662 6.72969 24.4662 6.2582C24.4662 5.78671 24.8496 5.40328 25.3211 5.40328Z" fill="#292929"/>
</g>
<defs>
<clipPath id="clip0">
<rect width="45" height="40" fill="white"/>
</clipPath>
</defs>
</svg>
