<svg width="38" height="38" viewBox="0 0 38 38" fill="none" xmlns="http://www.w3.org/2000/svg">
<g clip-path="url(#clip0)">
<path d="M18.9422 18.7074C21.4303 17.2833 23.1304 14.6316 23.1304 11.5651C23.1304 7.01005 19.4246 3.3042 14.8696 3.3042C10.3145 3.3042 6.60867 7.01005 6.60867 11.5651C6.60867 14.6316 8.30875 17.2833 10.797 18.7074C4.57324 20.3415 0 25.6036 0 31.8406V33.8694C0 34.3254 0.370112 34.6956 0.826112 34.6956C1.28211 34.6956 1.65222 34.3254 1.65222 33.8694V31.8406C1.65214 25.2171 7.58185 19.826 14.8696 19.826C22.1572 19.826 28.087 25.2171 28.087 31.8406V33.8694C28.087 34.3254 28.457 34.6956 28.913 34.6956C29.369 34.6956 29.7392 34.3254 29.7392 33.8694V31.8406C29.7391 25.6036 25.1658 20.3398 18.9422 18.7074ZM8.26089 11.5651C8.26089 7.92042 11.2249 4.95642 14.8696 4.95642C18.5142 4.95642 21.4782 7.92042 21.4782 11.5651C21.4782 15.2097 18.5142 18.1737 14.8696 18.1737C11.2249 18.1737 8.26089 15.2098 8.26089 11.5651Z" fill="#292929"/>
<path d="M30.066 18.7292C31.8569 17.5446 33.0431 15.519 33.0431 13.2176C33.0431 9.57289 30.0791 6.60889 26.4346 6.60889C25.9786 6.60889 25.6084 6.97901 25.6084 7.43501C25.6084 7.89101 25.9786 8.26113 26.4346 8.26113C29.1671 8.26113 31.391 10.485 31.391 13.2177C31.391 15.9503 29.1671 18.1741 26.4346 18.1741C25.9786 18.1741 25.6084 18.5443 25.6084 19.0003C25.6084 19.4563 25.9785 19.8263 26.4345 19.8263C31.9015 19.8263 36.3475 23.9352 36.3475 28.9875V30.5652C36.3475 31.0212 36.7176 31.3914 37.1736 31.3914C37.6296 31.3914 37.9997 31.0212 37.9997 30.5652V28.9875C37.9997 24.2127 34.669 20.1567 30.066 18.7292Z" fill="#D79D4B"/>
</g>
<defs>
<clipPath id="clip0">
<rect width="38" height="38" fill="white"/>
</clipPath>
</defs>
</svg>
